<?xml version="1.0" encoding="UTF-8" standalone="no"?>
<svg
   version="1.1"
   width="3061pt"
   height="3061pt"
   id="svg33"
   viewBox="0 0 3061 3061"
   sodipodi:docname="logo.cdr"
   xmlns:inkscape="http://www.inkscape.org/namespaces/inkscape"
   xmlns:sodipodi="http://sodipodi.sourceforge.net/DTD/sodipodi-0.dtd"
   xmlns="http://www.w3.org/2000/svg"
   xmlns:svg="http://www.w3.org/2000/svg">
  <defs
     id="defs33" />
  <sodipodi:namedview
     id="namedview33"
     pagecolor="#ffffff"
     bordercolor="#000000"
     borderopacity="0.25"
     inkscape:showpageshadow="2"
     inkscape:pageopacity="0.0"
     inkscape:pagecheckerboard="0"
     inkscape:deskcolor="#d1d1d1"
     inkscape:document-units="pt" />
  <path
     d="M 3061.4199,3061.0001 H 0 V -0.4198 h 3061.4199 z"
     style="fill:none"
     id="path1" />
  <path
     d="m 1190.0299,1923.9701 h 13.8501 v 35.24 h 7.77 v -35.24 h 13.8501 v -6.5599 h -35.4702 z"
     style="fill:none"
     id="path2" />
  <path
     d="M 1260.7401,1934.6601 H 1239.12 v -17.2499 h -7.77 v 41.7999 h 7.77 v -17.92 h 21.6201 v 17.92 h 7.6998 v -41.7999 h -7.6998 z"
     style="fill:none"
     id="path3" />
  <path
     d="m 1287.4901,1941.1702 h 20.1898 v -6.3902 h -20.1898 v -10.8099 h 22.75 v -6.5599 H 1279.73 v 41.7999 h 31.35 v -6.5701 h -23.5899 z"
     style="fill:none"
     id="path4" />
  <path
     d="m 1363.21,1951.6802 c -1.55,0.9598 -3.7599,1.44 -6.62,1.44 h -12.6 V 1941.05 h 12.6 c 2.8601,0 5.07,0.4901 6.62,1.47 1.5599,0.97 2.3301,2.5002 2.3301,4.57 0,2.1102 -0.7702,3.64 -2.3301,4.5902 z m -19.22,-28.1801 h 10.98 c 2.6699,0 4.7401,0.47 6.2101,1.4298 1.48,0.9502 2.2099,2.41 2.2099,4.3603 0,1.91 -0.7299,3.3398 -2.2099,4.2998 -1.47,0.9499 -3.5402,1.4301 -6.2101,1.4301 h -10.98 z m 23.29,14.5401 c -0.4901,-0.22 -0.9799,-0.4102 -1.5001,-0.58 1.6002,-0.8402 2.9101,-2.0001 3.8801,-3.4801 1.04,-1.5701 1.5599,-3.4801 1.5599,-5.7101 0,-3.2998 -1.3198,-5.94 -3.9399,-7.9098 -2.63,-1.9701 -6.4301,-2.95 -11.41,-2.95 h -19.6501 v 41.7999 h 20.8401 c 5.3801,0 9.43,-1 12.16,-2.9899 2.7199,-1.9902 4.0901,-4.7702 4.0901,-8.3603 0,-2.4298 -0.54,-4.4597 -1.61,-6.0899 -1.08,-1.6299 -2.5501,-2.88 -4.4201,-3.7298 z"
     style="fill:none"
     id="path5" />
  <path
     d="m 1389.4299,1941.1702 h 20.1901 v -6.3902 h -20.1901 v -10.8099 h 22.75 v -6.5599 h -30.5098 v 41.7999 h 31.35 v -6.5701 h -23.5902 z"
     style="fill:none"
     id="path6" />
  <path
     d="m 1451.1801,1945.76 -23.0502,-28.3498 h -6.3898 v 41.7999 h 7.7 V 1930.86 l 22.9898,28.3501 h 6.3902 v -41.7999 h -7.64 z"
     style="fill:none"
     id="path7" />
  <path
     d="m 1479.1601,1927.7402 c 1.33,-1.3201 2.91,-2.3301 4.7199,-3.0501 1.81,-0.72 3.8101,-1.0701 6.0001,-1.0701 2.1498,0 4.1599,0.4 6.0299,1.2201 1.87,0.82 3.5801,2.0401 5.14,3.67 l 5.01,-4.7101 c -1.95,-2.3099 -4.3401,-4.0498 -7.16,-5.2299 -2.8299,-1.1701 -5.9599,-1.76 -9.3799,-1.76 -3.2201,0 -6.19,0.5301 -8.9002,1.58 -2.7,1.0599 -5.0698,2.56 -7.0999,4.5099 -2.0299,1.95 -3.61,4.22 -4.72,6.81 -1.12,2.59 -1.6699,5.4502 -1.6699,8.6 0,3.14 0.5499,6.01 1.6699,8.6 1.11,2.5901 2.6799,4.8501 4.6899,6.8001 2.0101,1.9599 4.3702,3.4599 7.0702,4.5099 2.7099,1.0602 5.6798,1.59 8.8999,1.59 3.46,0 6.6101,-0.5999 9.44,-1.8 2.8199,-1.19 5.21,-2.9399 7.16,-5.2498 l -5.01,-4.7203 c -1.5599,1.6702 -3.27,2.9203 -5.14,3.7301 -1.87,0.8201 -3.8801,1.23 -6.0299,1.23 -2.19,0 -4.1901,-0.36 -6.0001,-1.08 -1.8099,-0.7101 -3.3899,-1.73 -4.7199,-3.0399 -1.3301,-1.3201 -2.38,-2.8701 -3.14,-4.6601 -0.75,-1.7898 -1.1301,-3.7599 -1.1301,-5.91 0,-2.1501 0.3801,-4.1199 1.1301,-5.9199 0.76,-1.79 1.8099,-3.34 3.14,-4.6499 z"
     style="fill:none"
     id="path8" />
  <path
     d="M 1542.9101,1934.6601 H 1521.29 v -17.2499 h -7.7599 v 41.7999 h 7.7599 v -17.92 h 21.6201 v 17.92 h 7.7 v -41.7999 h -7.7 z"
     style="fill:none"
     id="path9" />
  <path
     d="m 1601.2001,1917.4102 -16.3202,27.6998 -16.5898,-27.6998 H 1561.9 v 41.7999 h 7.4001 v -27.3299 l 13.7398,22.61 h 3.5201 l 13.68,-23.04 v 27.7599 h 7.4701 l -0.1301,-41.7999 z"
     style="fill:none"
     id="path10" />
  <path
     d="m 1627.7301,1943.4402 7.8599,-18.29 7.8301,18.29 z m 4.1,-26.03 -18.8101,41.7999 h 7.9401 l 4.1598,-9.68 h 20.9101 l 4.14,9.68 h 8.1799 l -18.8699,-41.7999 z"
     style="fill:none"
     id="path11" />
  <path
     d="m 1688.1701,1938.4299 c -1.73,1.4701 -4.3101,2.2102 -7.7301,2.2102 h -9.0799 v -16.67 h 9.0799 c 3.42,0 6.0001,0.7299 7.7301,2.1799 1.7399,1.4601 2.5999,3.5002 2.5999,6.1302 0,2.6197 -0.86,4.6698 -2.5999,6.1497 z m 2.1498,6.8001 c 2.6501,-1.19 4.6902,-2.88 6.1302,-5.0698 1.4298,-2.1901 2.1498,-4.82 2.1498,-7.88 0,-3.1102 -0.72,-5.7802 -2.1498,-8.0102 -1.44,-2.23 -3.4801,-3.9299 -6.1302,-5.1001 -2.6399,-1.1798 -5.8198,-1.7597 -9.5199,-1.7597 h -17.2 v 41.7999 h 7.7601 V 1947.03 h 9.4399 c 0.5599,0 1.08,-0.04 1.62,-0.07 l 8.53,12.2502 h 8.36 l -9.62,-13.7401 c 0.2101,-0.08 0.4301,-0.14 0.6299,-0.24 z"
     style="fill:none"
     id="path12" />
  <path
     d="m 1744.4001,1917.4102 h -8.78 l -20.6002,21.4398 v -21.4398 h -7.7599 v 41.7999 h 7.7599 v -10.76 l 6.6302,-6.7399 14.7498,17.4999 h 9.14 l -18.72,-23.1301 z"
     style="fill:none"
     id="path13" />
  <path
     d="m 1800.33,1944.22 c -0.7399,1.79 -1.7601,3.34 -3.0799,4.6601 -1.3102,1.3099 -2.8601,2.3298 -4.6301,3.0399 -1.77,0.72 -3.71,1.08 -5.8201,1.08 -2.1098,0 -4.07,-0.36 -5.8799,-1.08 -1.8099,-0.7101 -3.38,-1.7399 -4.6899,-3.0699 -1.3102,-1.34 -2.3502,-2.9001 -3.1102,-4.6899 -0.7498,-1.7901 -1.1299,-3.7401 -1.1299,-5.8502 0,-2.1501 0.3801,-4.1099 1.1299,-5.8898 0.76,-1.7702 1.8,-3.3202 3.1102,-4.6502 1.3099,-1.34 2.88,-2.3599 4.6899,-3.0799 1.8099,-0.72 3.7701,-1.0701 5.8799,-1.0701 2.1101,0 4.0501,0.3501 5.8201,1.0701 1.77,0.72 3.3301,1.73 4.6599,3.0501 1.3402,1.3099 2.3601,2.8599 3.0801,4.6499 0.7101,1.8 1.0701,3.7698 1.0701,5.9199 0,2.1501 -0.3702,4.1202 -1.1001,5.91 z m 2.5599,-21.35 c -2.01,-1.9298 -4.39,-3.42 -7.13,-4.4799 -2.7499,-1.0499 -5.7398,-1.58 -8.96,-1.58 -3.2598,0 -6.2699,0.54 -9.0198,1.6101 -2.74,1.08 -5.1302,2.5798 -7.1601,4.5099 -2.0299,1.9301 -3.6099,4.2001 -4.7199,6.8099 -1.12,2.6102 -1.6702,5.4601 -1.6702,8.57 0,3.06 0.5502,5.9 1.6702,8.5102 1.11,2.5999 2.69,4.8898 4.7199,6.84 2.0299,1.9499 4.4201,3.46 7.1901,4.5298 2.77,1.08 5.7699,1.62 8.9898,1.62 3.2202,0 6.2101,-0.5298 8.96,-1.59 2.74,-1.05 5.12,-2.55 7.13,-4.5099 2.02,-1.95 3.5802,-4.22 4.6902,-6.8301 1.12,-2.6099 1.6699,-5.47 1.6699,-8.57 0,-3.1099 -0.5499,-5.98 -1.6699,-8.6 -1.11,-2.63 -2.6702,-4.9099 -4.6902,-6.84 z"
     style="fill:none"
     id="path14" />
  <path
     d="m 1817.5,1959.2101 h 7.7601 V 1943.14 h 20.1798 v -6.45 h -20.1798 v -12.7199 h 22.75 v -6.5599 H 1817.5 Z"
     style="fill:none"
     id="path15" />
  <path
     d="m 1896.5299,1938.4002 c -1.73,1.4499 -4.3098,2.1798 -7.7298,2.1798 h -9.0802 v -16.6099 h 9.0802 c 3.42,0 5.9998,0.7299 7.7298,2.1799 1.7402,1.4601 2.6002,3.5002 2.6002,6.1302 0,2.6197 -0.86,4.6598 -2.6002,6.12 z m 2.1501,-19.2303 c -2.6399,-1.1798 -5.8201,-1.7597 -9.5199,-1.7597 H 1871.96 v 41.7999 h 7.7599 v -12.0702 h 9.4402 c 3.6998,0 6.88,-0.5998 9.5199,-1.8198 2.6501,-1.2101 4.6899,-2.92 6.12,-5.1301 1.44,-2.2099 2.16,-4.8498 2.16,-7.9098 0,-3.1102 -0.72,-5.7802 -2.16,-8.0102 -1.4301,-2.23 -3.4699,-3.9299 -6.12,-5.1001 z"
     style="fill:none"
     id="path16" />
  <path
     d="m 1943.32,1940.7002 c 0,4.2999 -0.91,7.42 -2.74,9.3699 -1.83,1.95 -4.4399,2.9299 -7.8299,2.9299 -3.38,0 -6.0001,-0.9799 -7.8502,-2.9299 -1.8499,-1.9499 -2.78,-5.07 -2.78,-9.3699 v -23.29 h -7.7598 v 23.5199 c 0,6.1398 1.62,10.8099 4.8699,14.04 3.24,3.2199 7.71,4.8399 13.4,4.8399 5.7401,0 10.2299,-1.62 13.4699,-4.8399 3.2502,-3.2301 4.8702,-7.9002 4.8702,-14.04 v -23.5199 h -7.6501 z"
     style="fill:none"
     id="path17" />
  <path
     d="m 1986.4701,1938.4299 c -1.73,1.4701 -4.3101,2.2102 -7.7301,2.2102 h -9.0799 v -16.67 h 9.0799 c 3.42,0 6.0001,0.7299 7.7301,2.1799 1.73,1.4601 2.5999,3.5002 2.5999,6.1302 0,2.6197 -0.8699,4.6698 -2.5999,6.1497 z m 2.1498,6.8001 c 2.6501,-1.19 4.6902,-2.88 6.12,-5.0698 1.44,-2.1901 2.1501,-4.82 2.1501,-7.88 0,-3.1102 -0.7101,-5.7802 -2.1501,-8.0102 -1.4298,-2.23 -3.4699,-3.9299 -6.12,-5.1001 -2.6499,-1.1798 -5.8198,-1.7597 -9.5199,-1.7597 h -17.2001 v 41.7999 h 7.7602 V 1947.03 h 9.4399 c 0.5499,0 1.08,-0.04 1.6101,-0.07 l 8.5399,12.2502 h 8.36 l -9.6299,-13.7401 c 0.21,-0.08 0.4399,-0.14 0.6398,-0.24 z"
     style="fill:none"
     id="path18" />
  <path
     d="m 2005.5501,1959.2101 h 7.77 v -41.7999 h -7.77 z"
     style="fill:none"
     id="path19" />
  <path
     d="m 2074.3401,1937.7502 -12.35,-20.34 H 2019.17 v 6.5599 h 13.8501 v 35.24 h 7.77 v -35.24 h 13.8498 v -5.0902 l 15.5302,25.56 v 14.7702 h 7.7 v -14.68 l 16.42,-27.1199 h -7.64 z"
     style="fill:none"
     id="path20" />
  <path
     d="m 2692.1999,1709.0201 c -9.5099,-20.6901 -29.2898,-33.7799 -39.0299,-54.18 -13.04,2.9899 -25.02,9.68 -38.4999,11.1398 -17.17,1.8701 -34.3401,5.1801 -51.5302,0.3101 14.76,-2.12 29.1101,-5.6199 43.4401,-9.1 20.59,-5.01 40.75,-11.1699 57.4999,-25.2199 6.5002,-5.4501 10.6801,-12.1501 11.7701,-20.3601 1.5899,-11.9299 -5.8499,-16.49 -17.2701,-13.7299 -9.72,2.3499 -10.23,11.7899 -16.4398,16.3199 -13.3002,9.72 -28.77,13.83 -44.6602,16.93 -38.3598,7.4899 -76.7299,4.7899 -114.8998,-0.7901 -31.3602,-4.5898 -62.6502,-10.2299 -90.3501,-27.2698 -7.7799,-4.7999 -15.12,-10.4499 -14.1199,-20.77 0.9499,-9.6999 8.89,-14.22 16.8299,-17.28 15.0301,-5.7901 30.5501,-9.9601 47.1801,-7.78 -4.03,1.12 -8.0201,2.3199 -12.0702,3.3199 -12.03,2.9801 -23.44,7.3401 -32.9298,15.5299 -5.73,4.9402 -6.1501,11.0101 -1.4502,16.8503 4.6902,5.8297 9.2001,5.1797 14.5202,-0.2401 4.8299,-4.9201 11.7898,-7.4999 18.6199,-6.4899 16.6901,2.45 30.3599,-7.45 45.1701,-11.4903 15.4899,-4.21 29.0999,-5.7498 44.2998,-0.9297 14.3501,4.5399 27.8102,14.2398 43.5802,11.7099 14.0198,-2.2501 24.4499,3.71 35.38,10.4099 6.7799,4.1602 5.62,7.0901 -0.2202,10.5101 -11.31,6.6299 -23.76,10.25 -38.74,13.4501 41.1001,5.4799 83.27,-15.0202 72.25,-44.8002 -19.8799,17.0501 -33.2898,15.1702 -48.1498,-7.0101 -2.3202,-3.4497 -4,-7.4097 -5.4701,-11.3298 -2.26,-6.0499 -5.94,-8.8001 -12.7,-10.25 -46.1101,-9.8799 -92.4599,-10.3799 -138.82,-3.64 -22.9799,3.35 -45.7999,8.8299 -64.47,24.2799 -12.9201,10.69 -14.29,23.3501 -4.2599,36.68 9.4198,12.5101 22.5598,20.19 36.0499,27.3101 19.2101,10.1398 40.3401,15.1798 60.76,22.2599 -22.75,0.05 -45.28,-3.2499 -65.34,-12.96 -15.6299,-7.5798 -26.8699,-10.5899 -36.9901,6.45 -2.2298,3.7601 -6.7598,6.41 -10.6798,8.8599 -9.7101,6.1002 -7.4401,10.6603 0.7798,16.2502 31.9402,21.6899 67.21,35.17 104.65,43.4999 26.5402,5.91 53.57,8.07 81.5502,8.71 -1.1701,1.69 -1.3402,2.2201 -1.6401,2.31 -1.59,0.4802 -3.1899,1 -4.8201,1.2299 -68.8399,9.5502 -132.7099,-6.2798 -192.78,-39.1399 -10.5698,-5.79 -12.8599,-1.9199 -15.6999,6.55 -6.5401,19.4301 -6.74,38.9001 -1.7399,58.7001 3.1799,12.6 10.0499,23.7099 15.6699,38.3899 -11.4299,-10.22 -19.16,-19.7098 -25.85,-29.9698 -31.6301,-48.5102 -41.98,-102.71 -41.8,-159.5302 0.2299,-72.15 19.5299,-137.8899 68.1001,-192.7998 30.3699,-34.3401 67.7398,-53.9102 115.2499,-49.9201 25.8001,2.16 40.4799,13.82 46.4601,38.7799 2.3599,9.86 4.0799,19.9301 7.24,29.5299 4.21,12.78 10.59,24.2901 25.7599,26.6902 15.6401,2.48 28.3699,-2.8701 37.76,-15.48 6.1699,-8.28 9.4799,-17.8702 10.1001,-28.22 1.7898,-29.8401 -13.8401,-53.29 -45.94,-67.3402 -43.5401,-19.0598 -89.2301,-21.6898 -135.6001,-15.0998 -83.6699,11.88 -145.9899,55.7501 -186.1001,129.5501 -42.1299,77.5199 -47.4698,159.9298 -22.9198,243.54 19.55,66.5798 61.2099,117.18 123.51,149.0799 47.4599,24.3 98.64,29.0299 150.74,23.2799 44.2499,-4.8898 82.6599,-23.01 113.47,-56.0299 9.7098,-10.41 18.5899,-21.4699 27.7098,-34.4101 0.4201,3.02 0.93,4.2302 0.68,5.2299 -12.31,47.6402 -31.0198,92.1101 -64.9698,128.7803 -34.9001,37.6999 -77.4201,54.3699 -128.9001,46.2398 -42.9001,-6.7799 -81.3501,-24.98 -118.87,-45.64 -44.3999,-24.4401 -86.26,-53.2599 -131.73,-75.89 -64.5899,-32.1401 -132.0599,-47.13 -203.87,-33.2898 -44.7599,8.6298 -85.8101,25.8199 -117.72,60.0797 -6.84,7.3503 -13.5399,15.1002 -17.2301,26.7801 6.8001,-3.6598 11.6601,-6.2099 16.4602,-8.8798 4.8099,-2.6601 9.5599,-5.4301 14.33,-8.1701 65.1699,-37.5701 133.38,-42.8601 204.0299,-18.4101 50.3101,17.42 95.14,45.5201 140.0099,73.43 55.3201,34.4002 110.7202,68.77 175.9901,81.62 47.7,9.39 94.29,6.6101 138.6499,-14.9701 51.2402,-24.9298 86.0301,-65.7399 110.52,-116.1399 4.5102,-9.2699 9.8402,-16.8599 18.8,-22.8201 20.9301,-13.9099 39.06,-31.1998 52.3502,-52.7198 19.5398,-31.65 25.5799,-64.7901 9.3498,-100.08 z"
     style="fill:none"
     id="path21" />
  <path
     d="m 681.0109,1416.8001 c -50.9148,-22.0201 -66.4969,-40.46 -66.394,-79.59 37.8451,11.7898 60.8381,37.22 66.394,79.59 z m -38.7258,256.0198 c -9.8921,-16.4599 -22.3552,-29.2099 -40.3722,-36.6797 -9.989,-4.1301 -15.1909,-12.9702 -17.939,-23.29 -1.1138,-4.1803 -1.2039,-7.4801 3.901,-8.8603 5.866,-1.5899 4.4501,2.9203 5.2801,5.8703 1.6169,5.7399 4.648,11.02 11.5061,8.0799 6.702,-2.8701 5.9919,-9.3399 2.3168,-13.9201 -5.6988,-7.1099 0.0521,-9.0199 4.011,-12.6499 5.8592,-5.3601 7.3171,-0.5899 9.9351,3.3298 2.9549,4.4201 7.6989,6.2501 12.0059,2.7403 4.6891,-3.8203 2.827,-9.43 -1.1069,-12.0702 -12.1099,-8.1301 -0.485,-12.6099 2.7751,-17.3801 2.948,-4.3098 4.676,1.1302 6.0018,3.0101 2.7941,3.9802 6.2362,5.48 10.8881,4.5 3.123,-0.65 3.803,-3.3199 4.0309,-5.7398 0.4782,-5.0902 -2.81,-7.9402 -7.17,-9.0502 -6.6438,-1.69 -6.8558,-4.7398 -3.2578,-9.79 2.1759,-3.06 3.6139,-6.6399 5.3708,-9.9598 4.9841,-0.5001 4.1,4.68 6.7331,6.3898 2.939,1.9001 5.595,3.9501 9.239,2.0702 1.9729,-1.01 3.3369,-2.6003 3.5501,-4.9 0.3648,-3.9302 -1.6061,-7.34 -5.1191,-7.6901 -13.5411,-1.3201 -8.9269,-8.17 -5.87,-15.81 8.337,-20.8701 13.904,-42.5001 16.261,-64.91 0.578,-5.5 2.4321,-12.4801 -4.834,-13.6902 -7.952,-1.3099 -5.199,7.0702 -6.0859,10.8403 -7.8852,33.5398 -18.1171,66.0498 -38.0852,94.68 -9.5258,13.6599 -20.4559,26.0799 -35.5008,33.7598 -3.0152,1.54 -8.7421,7.7099 -11.2822,0.43 -1.7889,-5.1299 -4.8478,-12.57 2.6841,-16.9798 50.1239,-29.34 61.045,-79.81 70.606,-130.9901 0.2729,-1.4602 -0.533,-3.1301 -1.0449,-5.77 -4.2191,2.63 -4.593,6.0801 -5.5491,9.5599 -7.7641,28.26 -17.8991,55.54 -34.577,79.95 -7.4741,10.9401 -16.5379,20.3001 -27.9079,27.26 -4.86,2.9701 -9.1951,3.4401 -9.8431,-3.7698 -3.6941,-41.1401 -24.9811,-69.0202 -65.5979,-84.31 10.783,-4.14 19.6449,-5.3402 28.7679,-5.9902 32.247,-2.3298 52.471,-18.0199 59.8031,-45.7399 1.0928,-4.13 1.9358,-8.1102 0.597,-12.2 -5.8031,-1.01 -4.964,4.1 -6.1951,6.55 -12.2879,24.4698 -31.4719,37.9698 -59.2909,38.38 -11.7952,0.1701 -23.4161,1.73 -34.6212,5.8601 -2.7989,-5.9902 1.923,-12.0501 -2.1268,-18.3802 -7.0311,5.4902 -8.4291,13.7002 -11.74,20.6201 -4.138,8.6499 -11.071,11.7198 -19.7901,9.5499 -10.002,-2.48 -19.2699,-6.88 -23.4071,-17.39 -1.73,-4.3999 1.944,-4.53 4.9731,-4.9901 10.4131,-1.5599 15.1589,-8.6998 13.072,-18 -2.101,-9.36 -10.69,-9.5298 -18.7041,-7.7998 -9.2279,1.9899 -18.2849,3.0901 -28.5738,-3.64 15.5769,-12.8199 26.1708,-28.7401 35.2939,-45.7701 7.554,-14.0998 12.3341,-28.59 9.9141,-44.93 -1.745,-11.78 0.6778,-22.76 8.4748,-32.1599 7.0911,-8.54 11.969,-18.2001 16.2601,-28.4499 6.2319,-14.8802 17.471,-21.4101 32.349,-16.9901 25.6161,7.6 50.7061,7.7999 76.0759,-0.09 8.5082,-2.6498 13.3982,-1.8 11.516,9.5902 -2.1268,12.8698 6.0611,22.21 15.2042,31.7398 -4.8121,2.6699 -9.163,3.0401 -13.6171,3.4401 -4.435,0.4 -8.9421,-2.56 -16.74,1.48 43.2471,11.95 69.3641,39.8698 88.1439,75.8401 C 660.111,1342.8 642.888,1333.04 625.4331,1323.61 c -7.2471,-3.9098 -12.5541,-9.9499 -17.8832,-15.98 -1.635,-1.8499 -2.9659,-4.72 -5.938,-3.8299 -3.0339,0.9 -2.795,3.9399 -2.573,6.4499 1.7512,19.7799 1.989,39.8101 7.1081,59.1302 4.436,16.74 15.234,28.9998 29.8939,37.8799 16.9931,10.3 34.1932,20.2601 51.052,30.78 7.0931,4.4201 10.495,4.0099 10.993,-5.1701 2.433,-44.82 -2.4809,-87.2399 -38.156,-119.9299 -1.527,-1.3901 -2.734,-3.1399 -5.0128,-5.8101 36.1678,6.72 51.6059,29.7 54.6678,62.99 0.9692,10.52 2.1252,21.0901 2.13,31.6401 0.0541,117.68 -0.091,235.3699 -0.2109,353.0599 -0.023,21.6099 -1.7921,43.0801 -6.3179,64.2402 -1.9162,8.9498 -5.2911,17.3599 -14.032,26.0098 7.9608,-73.3898 6.5489,-142.8999 -27.5862,-207.8799 -0.557,19.19 7.488,37.48 6.3742,58.0499 -12.418,-4.82 -21.5932,-12.3299 -27.657,-22.4201 z M 417.3219,1459.2501 c 14.4652,-1.66 27.58,2.3301 40.1301,8.9098 -14.6809,3.4302 -28.4539,2.3103 -40.1301,-8.9098 z m 0.451,-96.12 c -6.2558,2.4599 -12.687,4.5399 -19.156,6.3799 -6.3958,1.8301 -12.9398,3.13 -21.996,5.2702 12.8552,-27.6302 31.4411,-45.0201 58.339,-53.6301 6.228,-1.9899 7.3701,-0.3501 7.3701,5.36 0,14.8301 -10.601,31.1199 -24.5571,36.62 z m 22.231,-60.4701 c -5.3359,7.9999 -14.9009,7.3899 -22.5689,10.65 5.927,-6.7901 13.5029,-10.2398 22.5689,-10.65 z m 356.9732,41.1401 c 1.271,-23.0199 7.5438,-45 23.1159,-63.19 16.2199,-18.9501 43.3749,-26.09 69.569,-16.6501 20.9759,7.56 34.6729,22.18 36.8269,45.5601 1.5242,16.53 7.8001,25.99 22.3841,34.4699 11.6399,6.77 13.6749,17.2701 11.1869,29.56 -5.6219,27.7599 -20.9089,50.7702 -37.6778,72.43 -40.0992,51.7901 -81.303,102.7202 -122.091,153.97 -0.6971,0.8801 -1.7771,1.4502 -4.824,3.8599 0,-24.8099 -0.163,-47.2099 0.0309,-69.6098 0.551,-63.47 -2.0231,-126.9799 1.4791,-190.4 z m 353.683,-4.2999 c 4.85,-1.22 7.8899,-0.5 9.68,4.8299 4.5998,13.7399 9.0099,28.01 6.8,42.1799 -2.4902,15.8799 5.58,21.05 18,24.7501 9.58,2.8599 19.0698,3.1601 28.52,0.02 7.3298,-2.4397 13.86,-6.5698 19.0298,-12.2298 6.8802,-7.5299 -2.09,-12.88 -3.7899,-19.0301 -4.07,-14.6999 -7.8299,-29.3499 -8.28,-44.67 -0.1199,-4.1298 -1.16,-8.5799 5.5,-9.1001 6.12,-0.47 7.1099,3.0002 7.3401,7.6601 1.0499,20.95 6.7198,40.75 15.2798,59.76 1.99,4.43 1.6702,7.5801 -1.44,11.4199 -20.7399,25.6502 -63.9499,29.4903 -89.2,7.81 -7.8999,-6.7699 -0.9298,-15.1098 -2.9398,-21.9197 0.9499,-15.1603 -1.8902,-29.12 -7.0702,-42.6901 -1.3198,-3.4599 -3.6298,-7.2201 2.5702,-8.7899 z M 1262.3,1324.95 c 56.2601,3.3202 142.8801,52.9302 158.3201,135.8401 -16.2901,-32.43 -35.3701,-58.6601 -65.3701,-75.1501 4.2001,13 12.4501,23.6599 17.57,36 4.3501,10.5001 0.91,14.43 -9,16.96 -37.2401,9.5099 -73.4601,-7.0501 -96.08,-44.5598 -10.3901,-17.2202 -16.56,-35.7701 -18.6599,-55.9202 -1.1602,-11.13 2.6799,-13.79 13.2199,-13.17 z m -588.287,400.8999 c 6.093,40.6902 4.1839,81.0201 -5.5389,120.9101 -6.4752,26.57 -6.819,26.68 20.7598,24.85 38.4151,-2.5498 76.7891,-6.2601 115.2822,-1.01 6.266,0.8501 12.704,1.25 18.9969,0.8402 4.3039,-0.2801 10.984,3.4299 12.2001,-4.7702 1.002,-6.7399 -1.4242,-10.62 -8.7231,-12.8401 -12.073,-3.6598 -19.7249,-12.7298 -23.5669,-24.6999 -3.623,-11.2899 -6.0761,-22.79 -6.7312,-34.74 -2.1339,-38.92 -0.9048,-77.87 -1.211,-116.8098 -0.026,-3.3101 -0.2868,-7.4702 1.4641,-9.8102 10.5571,-14.1298 21.6701,-27.8498 33.3729,-42.69 2.5651,4.85 4.3571,8.1601 6.0792,11.5001 26.498,51.4299 52.6419,103.04 79.6229,154.1999 13.0229,24.7 26.75,49.5202 51.861,64.41 42.1591,24.9899 87.429,21.45 133.039,13.0501 4.6899,-0.8699 5.9,-3.9801 6.12,-8.2202 0.28,-5.3699 -2.52,-7.1498 -7.35,-8.3097 -39.34,-9.43 -66.96,-34.5402 -88.84,-67.1502 -47.4741,-70.7199 -82.319,-148.2999 -121.5729,-223.4798 -2.804,-5.3802 -1.228,-8.3801 1.8938,-12.2701 36.0142,-44.8401 72.216,-89.5402 107.8022,-134.7202 31.657,-40.1899 71.4668,-64.9499 123.2668,-69.05 6.6302,-0.5298 9.9102,0.8201 12.6301,6.9401 8.09,18.1899 7.9001,36.9502 5.32,56.0599 -0.54,4.0003 -3.2899,8.6001 0.7299,11.9401 4.0601,3.3801 2.9702,6.02 0.5701,9.62 -2.3301,3.5002 -4.93,8.1501 0.14,11.01 5.62,3.1799 8.54,-1.29 10.2901,-5.9099 1.6599,-4.36 3.8698,-6.4599 8.2598,-3.3001 3.03,2.1702 8.68,2.5001 5.3102,9.0201 -2.2601,4.3699 -4.4501,10.5999 1.73,13.0898 6.73,2.7102 8.53,-3.7899 9.8098,-8.5997 1.73,-6.4602 6.1801,-4.2801 10.12,-3.8302 5,0.57 4.3702,3.4702 3.4101,7.31 -1.48,5.8901 -0.25,12.13 6.7101,12.4302 6.13,0.2698 6.1699,-6.1101 5.7898,-10.6603 -0.4499,-5.3699 1.4,-7.3698 6.7402,-8.0299 5.3799,-0.66 7.7199,0.4699 8.17,6.2401 0.3898,4.9099 3.0898,9.6398 8.93,8.1301 5.22,-1.3502 5.1398,-6.5801 3.5198,-10.62 -2.1299,-5.2603 -1.6398,-8.2502 3.9302,-10.9701 6.1898,-3.0299 6.7799,1.1699 9.0499,4.8098 2.3301,3.7301 5.55,9.0701 10.8301,4.6202 4.0498,-3.42 3.3999,-8.8001 -0.6302,-12.27 -6.73,-5.7901 -1.7898,-8.2899 1.9902,-12.6301 5.9698,-6.83 8.21,-0.06 10.5798,2.49 30.02,32.3699 65.1801,45.9201 108.4601,30.2099 5.7999,-2.0999 7.62,-0.3299 7.9999,5.2901 0.6202,9.28 1.3501,18.5799 2.5602,27.8002 0.44,3.35 -2.5401,10.0598 5.08,8.64 5.1599,-0.9502 12.46,-0.6302 11.1498,-10.0301 -1.1299,-8.1601 -1.22,-16.46 -1.76,-24.7099 6.1701,7.4299 9.6502,15.0797 11.4902,23.4099 0.8198,3.74 1.7099,7.9299 6.37,8.4501 9.9598,1.1199 18.8499,5.83 28.51,8.9699 1.23,-8.2 -0.7801,-15.2101 -1.8501,-22.24 -13.3801,-87.9302 -78.8899,-154.0701 -166.3801,-168.56 -42.0098,-6.9602 -82.55,1.87 -122.98,10.9999 -62.8299,14.1899 -125.6,22.25 -189.5468,6.5001 -13.7931,-3.4002 -23.6132,-6.7901 -20.9602,-23.6599 0.6091,-3.8801 -1.1458,-8.32 -2.473,-12.28 -13.2298,-39.49 -60.7538,-60.6801 -101.9888,-46.0602 -20.5152,7.28 -37.3672,19.8902 -51.8511,35.3999 -38.6461,41.3703 -100.19,26.6502 -137.1311,-0.6599 29.3732,-13.2599 52.299,-33.0899 67.0692,-61.4999 15.0709,-28.9902 18.305,-59.1199 10.2438,-91 -10.11,-39.9802 -51.1078,-80.93 -89.0699,-86.1701 3.888,8.89 10.5301,14.76 15.8879,21.45 19.921,24.88 32.8311,52.06 29.4882,85.0399 -4.384,43.2803 -40.9932,75.9802 -83.512,74.4801 -4.6222,-0.1599 -10.0021,-0.9199 -13.7991,1.01 -34.0279,17.34 -67.1689,-5.87 -100.813,-1.7898 -1.099,0.14 -2.3831,-0.7901 -3.5039,-1.37 -30.3432,-15.7102 -48.841,-39.9802 -51.9781,-74.4202 -3.2519,-35.6999 14.383,-63.33 36.2401,-89.0499 4.129,-4.86 9.004,-9.2701 11.4939,-15.8799 -2.103,-0.2501 -3.0291,-0.65 -3.723,-0.4 -49.46,17.6698 -81.879,51.3 -89.1811,103.8399 -6.73,48.4401 11.511,88.56 49.6012,119.6798 5.0718,4.1502 16.2519,4.4501 14.364,12.9402 -1.578,7.0999 -10.8731,9.9499 -17.5861,13.53 -1.114,0.5999 -2.325,1.01 -3.498,1.4999 -39.8999,16.48 -57.9149,49.53 -67.8821,88.95 -2.749,10.87 1.393,11.3 10.0922,8.8702 15.1549,-4.2401 30.498,-7.8001 47.1138,-11.99 -3.6068,7.6198 -8.7369,11.2598 -13.4869,15.3998 -13.936,12.1402 -18.6149,46.54 -8.6851,61.9701 18.699,29.06 56.7711,36.83 85.0841,16.96 5.5199,-3.8701 10.548,-4.7801 16.5181,-2.3 28.0258,11.6501 48.568,29.73 55.6469,60.94 6.2011,27.33 6.211,55.4298 11.7289,82.7898 3.7851,18.7603 12.3242,34.0002 31.21,41.58 10.8811,4.3702 19.2031,11.6601 25.651,21.7103 10.645,16.5898 23.5661,30.9798 43.1201,37.5199 5.849,1.9599 8.392,6.0398 9.309,12.1598 z"
     style="fill:none"
     id="path22" />
  <path
     d="m 1817.17,1829.4001 c -2.1399,-5.7402 -5.98,-4.21 -10.2399,-3.39 -14.1902,2.7499 -26.7202,-1.8802 -38.3802,-9.4801 -12.5399,-8.18 -22.75,-18.8898 -31.9198,-30.5898 -29.6201,-37.7601 -51.34,-80.2701 -73.7402,-122.4 -4.6398,-8.7203 -3.8999,-12.71 5.07,-18.3002 25.1402,-15.66 43.9801,-36.83 49.8101,-67.1599 7.9699,-41.51 -18.7701,-69.9301 -60.6699,-64.8799 -15.6801,1.8898 -28.8802,8.9399 -41.2401,18.11 -13.3299,9.9 -22.82,23.2999 -34.5501,39.6598 0,-10.7099 0,-17.46 0,-24.2201 -0.04,-40.1998 0.22,-80.3999 -0.2199,-120.5898 -0.29,-27.6199 -12.2301,-38.3 -39.5601,-37.0301 -18.7098,0.87 -35.4699,7.2201 -50.6599,17.9201 -3.24,2.2799 -7.74,3.9399 -4.8799,9.8399 2.5699,5.2801 5.4998,2.8701 9.26,1.98 11.7198,-2.7899 16.63,0.6199 17.7999,12.71 0.97,10.08 1.25,20.26 1.26,30.4001 0.1099,96.05 0.03,192.1 0.1899,288.1599 0.04,21.5402 9.4201,29.5002 33.4,29.4301 24.0302,-0.06 33.2402,-8.17 33.2901,-29.62 0.09,-39.78 -0.97,-79.5901 0.3901,-119.3202 1.25,-36.36 20.1999,-63.9998 49.68,-83.99 14.6899,-9.9598 27.9898,-1.7498 28.1599,16.2 0.1001,10.8 -3.71,20.7301 -9.0601,30.0002 -12.96,22.4499 -30.82,40.04 -53.17,53.1099 -4.1698,2.4401 -9.0598,3.2602 -5.8799,10.8601 22.7701,54.3099 48.5101,107.0099 84.7499,153.7699 32.6302,42.1101 88.3602,53.7001 134.3401,28.88 3.6899,-1.9999 9.3101,-3.2599 6.77,-10.0599 z"
     style="fill:none"
     id="path23" />
  <path
     d="m 1451.8701,1769.9499 c 35.5898,-69.0999 37.8598,-141.7799 11.8298,-213.8298 -16.1898,-44.7899 -58.17,-54.5901 -98.3999,-28.2801 -11.4701,7.5101 -19.94,17.96 -30.42,30.3301 -1.1699,-7.3301 -1.6999,-11.48 -2.5101,-15.5701 -3.0098,-15.12 -15.1299,-26.5499 -30.5098,-28.01 -23.69,-2.2498 -43.6102,7.56 -62.54,20.3301 -4.0101,2.7099 -2.73,5.3699 -1.1202,8.5399 1.5701,3.0802 2.9602,3.71 6.8102,2.4401 13.93,-4.5601 19.1299,-1.26 21.4999,13.2899 1.09,6.6399 1.2501,13.4799 1.26,20.2301 0.06,56.7201 -0.01,113.4499 -0.06,170.1799 -0.01,8.13 -0.05,16.34 7.1501,22.03 14.18,11.2 30.1099,9.7702 45.7999,4.94 14.72,-4.5298 15.3601,-17.2599 15.3201,-30.0799 -0.1502,-47.8301 -0.1,-95.6701 -0.1301,-143.5102 -0.01,-16.8998 7.31,-30.2198 20.6099,-40.0997 14.32,-10.62 31.3801,-6.8601 39.7701,8.7999 3.1501,5.8699 5.7401,12.42 6.87,18.9499 10.29,59.9201 8.9101,119.6101 -5.5001,178.73 -3.6799,15.09 -11.08,28.9001 -26.6899,34.99 -6.98,2.7202 -7.1101,6.2799 -6.18,12.3702 1.33,8.6799 7.3499,5.47 11.6101,4.9098 33.8499,-4.4501 60.2198,-21.9398 75.53,-51.6801 z"
     style="fill:none"
     id="path24" />
  <path
     d="m 1141.71,1717.52 c -3.3999,10.01 -9.1999,17.93 -18.01,23.6002 -12.4599,8.0197 -26.1799,5.18 -34.01,-7.3401 -15.2499,-24.3901 -11.9101,-78.4902 30.12,-91.9499 16.1201,-5.1701 24.16,-0.04 24.2201,16.5299 0.02,7.17 0,14.3399 0,24.02 -0.97,10.0199 1.8899,22.7299 -2.3201,35.1399 z m 101.5001,33.1801 c 3.2,-4.2199 1.0298,-6.7501 -1.2401,-9.9 -3.53,-4.8999 -5.3499,-0.54 -7.93,1.1299 -11.0001,7.1201 -18.5,3.8999 -20.62,-9.1701 -0.8799,-5.3798 -0.6401,-10.9698 -0.65,-16.4698 -0.08,-38.9299 0.21,-77.87 -0.22,-116.8002 -0.3101,-27.8699 -8.1901,-52.4497 -33.0999,-68.7699 -35.4302,-23.1999 -95.7302,-21.5799 -129.7502,3.6901 -18.3098,13.61 -25.74,38.1399 -17.46,57.61 4.8101,11.3 16.67,18.8699 29.3,18.3299 11.6,-0.5 20.7502,-5.6698 24.1501,-17.0098 3.7,-12.3702 -2.38,-20.8902 -13.25,-26.9703 -8.1,-4.5297 -7.3899,-11.1299 -1.1401,-16.5299 13.9402,-12.0399 30.24,-14.44 47.5302,-9.15 14.91,4.5601 23.1199,15.7 24.8599,30.6502 2.04,17.5898 -1.19,33.8598 -17.6701,44.4498 -11.9299,7.67 -25.8398,10.2501 -38.8899,15.05 -27.3901,10.0499 -53.78,21.41 -65.9999,50.97 -17.6902,42.7601 1.9998,99.9201 58.9799,99.18 27.5201,-0.36 49.39,-12.2099 65.52,-34.1098 2.8701,1.2498 3.0101,3.4999 3.8299,5.4099 9.4901,22.2001 25.66,31.2899 49.5102,27.65 19.1999,-2.9299 32.8598,-14.2801 44.24,-29.24 z"
     style="fill:none"
     id="path25" />
  <path
     d="m 2001.7599,1636.59 c 0.2902,-3.78 0.05,-7.6098 0.05,-11.41 0.02,-22.2599 3.5799,-43.8001 14.7099,-63.4099 6.5001,-11.4701 14.97,-20.7802 29.9902,-19.3901 14.6399,1.3502 20.24,12.2301 24.7298,24.0001 10.33,27.1199 0.1,53.4099 -25.96,65.7 -10.2798,4.8399 -21.4098,7.8801 -31.61,12.8699 -10.22,5 -12.6399,1.29 -11.91,-8.36 z m 21.6102,141.8301 c 45.6599,8.9 84.2899,-5.4399 113.2299,-42.69 3.2601,-4.2001 10.8099,-8.8401 3.1901,-15.99 -7.9302,-7.4301 -10.2401,1.95 -13.71,4.9799 -29.67,25.8701 -67.6401,25.42 -94.5701,-1.6398 -10.6701,-10.7303 -16.6901,-24.1101 -21.92,-38.0602 -3.0801,-8.2199 -0.8101,-11.6601 7.52,-14.5599 30.6899,-10.6702 61.1,-22.2001 88.6301,-39.9402 49.8999,-32.1698 29.55,-85.6499 -2.9101,-103.7299 -31.7299,-17.6799 -64.15,-16.66 -96.19,-2.4998 -54.3699,24.0298 -72.6999,70.4299 -75.71,125.64 0.22,17.21 2.0401,33.8899 7.49,50.15 13.9799,41.7498 41.4499,69.8499 84.9501,78.3399 z"
     style="fill:none"
     id="path26" />
  <path
     d="m 1747.55,1544.94 c 11.81,-3.5799 18.18,0.14 20.44,13.0901 1.3,7.4299 1.0299,15.1798 1.0299,22.7801 0.04,56.2898 0.03,112.5799 -0.1398,168.8598 -0.03,9.83 1.5798,18.8399 10.6399,24.26 14.1301,8.46 29.41,7.8101 43.9001,2.1 13.7699,-5.4298 14.1299,-18.6299 14.15,-31.22 0.05,-46.55 0.11,-93.1 0.22,-139.6599 0.01,-4.5601 -0.79,-9.2401 2.8298,-13.21 10.0001,-11.01 20.4202,-21.4302 34.56,-27.14 15.59,-6.2901 30.78,-2.4001 38.05,9.8201 1.59,2.6699 1.5202,7.7 5.8601,6.6999 4.1099,-0.9501 7.06,-4.6499 7.8199,-9.1601 2.0401,-12.14 3.57,-24.3301 1.0202,-36.58 -2.6101,-12.57 -11.7901,-20.13 -24.77,-21.4999 -16.3701,-1.73 -28.33,6.5001 -39.4701,16.7198 -10.3,9.4601 -17.5199,21.53 -28.48,34.9801 -0.87,-8.57 -1.37,-14.4198 -2.0801,-20.2399 -1.9599,-16.0999 -13.39,-28.8201 -29.2099,-30.71 -23.6401,-2.8202 -43.7799,6.4899 -62.45,19.94 -3.4501,2.4801 -3.3299,5.01 -1.8,8.7101 2.15,5.2299 4.89,2.3598 7.88,1.4598 z"
     style="fill:none"
     id="path27" />
  <path
     d="m 2612.7799,1578.6 c -11.5798,-32.8 9.22,-53.1 27.3802,-77.8198 0.18,16.0897 4.6998,28.01 10.9598,39.5198 7.31,13.46 2.74,26.1501 -3.67,38.5401 -1.3799,2.6699 -5.61,4.18 -3.7899,8.39 46.0301,-17.0601 54.3699,-62.1499 35.4101,-103.9099 -5.4,6.2498 -5.7501,16.2099 -14.7801,19.6798 1.48,-40.1499 -7.2099,-64.4 -30.8401,-84.9501 3.5002,24.1401 -7.3899,42.8103 -20.49,60.6901 -7.7198,10.55 -16.23,20.5801 -21.3599,32.83 -10.7699,25.67 -2.4701,53.7602 21.1799,67.03 z"
     style="fill:none"
     id="path28" />
  <path
     d="m 520.1181,1332.2001 c 20.5959,1.2901 39.206,-2.01 51.078,-20.2399 -35.1252,-8.8702 -41.8422,-6.1501 -51.078,20.2399 z"
     style="fill:none"
     id="path29" />
  <path
     d="m 495.955,1272.0402 c -3.2539,6.1398 -5.794,14.3798 1.7249,17.8798 7.3712,3.4302 12.2652,-3.43 14.576,-10.1299 2.8511,-8.2602 5.449,-16.6901 5.881,-26.3001 -9.629,4.2301 -17.4838,9.6902 -22.1819,18.5502 z"
     style="fill:none"
     id="path30" />
  <path
     d="m 681.7759,1517.6801 c -0.2128,-5.7399 -4.6649,-7.6901 -9.5269,-8.0501 -3.1581,-0.2399 -7.6411,0.01 -6.9211,4.6902 0.7231,4.6899 3.5501,8.6 11.0942,8.4398 1.679,-0.1998 5.5239,-0.5198 5.3538,-5.0799 z"
     style="fill:none"
     id="path31" />
  <path
     d="m 682.759,1496.48 c 3.4259,0.5001 5.2999,-1.7798 5.8561,-4.96 -0.2282,-4.15 -2.49,-6.38 -6.3272,-6.5101 -3.386,-0.1199 -7.473,0.3702 -7.3979,4.75 0.0751,4.3801 4.0649,6.1603 7.869,6.7201 z"
     style="fill:none"
     id="path32" />
  <path
     d="m 661.695,1943.39 h 508.015 v -10.16 H 661.695 Z"
     style="fill:none"
     id="path33" />
</svg>
