<?xml version="1.0" encoding="UTF-8" standalone="no"?>
<svg
   version="1.1"
   width="3061pt"
   height="3061pt"
   id="svg35"
   viewBox="0 0 3061 3061"
   sodipodi:docname="kankreg 2.cdr"
   xmlns:inkscape="http://www.inkscape.org/namespaces/inkscape"
   xmlns:sodipodi="http://sodipodi.sourceforge.net/DTD/sodipodi-0.dtd"
   xmlns="http://www.w3.org/2000/svg"
   xmlns:svg="http://www.w3.org/2000/svg">
  <defs
     id="defs35" />
  <sodipodi:namedview
     id="namedview35"
     pagecolor="#ffffff"
     bordercolor="#000000"
     borderopacity="0.25"
     inkscape:showpageshadow="2"
     inkscape:pageopacity="0.0"
     inkscape:pagecheckerboard="0"
     inkscape:deskcolor="#d1d1d1"
     inkscape:document-units="pt" />
  <path
     d="M 0,3061.0001 H 3061.417 V -0.417 H 0 Z"
     style="fill:none"
     id="path1" />
  <path
     d="m 1203.8851,1959.2121 h 7.7629 v -35.2349 h 13.8549 v -6.569 h -35.4739 v 6.569 h 13.8561 z"
     style="fill:none"
     id="path2" />
  <path
     d="m 1231.3551,1959.2121 h 7.7638 v -17.9161 h 21.6181 v 17.9161 h 7.7029 v -41.8039 h -7.7029 v 17.2587 h -21.6181 v -17.2587 h -7.7638 z"
     style="fill:none"
     id="path3" />
  <path
     d="m 1279.728,1959.2121 h 31.3529 v -6.5701 h -23.5899 v -11.467 h 20.1849 v -6.389 h -20.1849 v -10.8088 h 22.7539 v -6.569 h -30.5169 z"
     style="fill:none"
     id="path4" />
  <path
     d="m 1336.2219,1959.2121 h 20.8412 c 5.3759,0 9.4269,-0.9949 12.153,-2.9871 2.7269,-1.9899 4.0909,-4.777 4.0909,-8.36 0,-2.4278 -0.5371,-4.458 -1.612,-6.091 -1.0749,-1.6328 -2.5481,-2.8769 -4.419,-3.7338 -0.4821,-0.2192 -0.9799,-0.4082 -1.493,-0.5732 1.601,-0.845 2.9021,-1.9999 3.8809,-3.488 1.0361,-1.571 1.554,-3.473 1.554,-5.7019 0,-3.3041 -1.315,-5.9431 -3.9419,-7.9141 -2.6291,-1.9701 -6.4309,-2.9548 -11.4069,-2.9548 h -19.6472 z m 7.7641,-35.712 h 10.9871 c 2.6668,0 4.737,0.4771 6.211,1.431 1.4729,0.9569 2.211,2.41 2.211,4.3611 0,1.9108 -0.7381,3.3448 -2.211,4.301 -1.474,0.9538 -3.5442,1.4317 -6.211,1.4317 h -10.9871 z m 0,17.557 h 12.6 c 2.867,0 5.076,0.4881 6.6291,1.4641 1.5528,0.9748 2.3298,2.497 2.3298,4.568 0,2.111 -0.777,3.6419 -2.3298,4.5978 -1.5531,0.955 -3.7621,1.4332 -6.6291,1.4332 h -12.6 z"
     style="fill:none"
     id="path5" />
  <path
     d="m 1381.667,1959.2121 h 31.354 v -6.5701 h -23.5899 v -11.467 h 20.1849 v -6.389 h -20.1849 v -10.8088 h 22.7539 v -6.569 h -30.518 z"
     style="fill:none"
     id="path6" />
  <path
     d="m 1421.7389,1959.2121 h 7.7032 v -28.347 l 22.9918,28.347 h 6.3901 v -41.8039 h -7.6439 v 28.3538 l -23.0522,-28.3538 h -6.389 z"
     style="fill:none"
     id="path7" />
  <path
     d="m 1480.6219,1918.3929 c -2.7068,1.0562 -5.076,2.558 -7.1059,4.5091 -2.0299,1.952 -3.604,4.22 -4.718,6.808 -1.1151,2.588 -1.6721,5.455 -1.6721,8.5992 0,3.1459 0.557,6.012 1.6721,8.6008 1.114,2.5869 2.6779,4.8569 4.6891,6.8072 2.0089,1.9519 4.369,3.4548 7.0758,4.5088 2.706,1.0542 5.6741,1.584 8.898,1.584 3.4631,0 6.6081,-0.5979 9.4351,-1.7918 2.827,-1.1951 5.216,-2.9472 7.1671,-5.256 l -5.017,-4.7172 c -1.5511,1.6722 -3.2641,2.9172 -5.135,3.7321 -1.872,0.8158 -3.882,1.224 -6.031,1.224 -2.1912,0 -4.1921,-0.3591 -6.0021,-1.0751 -1.8121,-0.7158 -3.3851,-1.732 -4.7179,-3.045 -1.3352,-1.315 -2.3811,-2.8678 -3.136,-4.659 -0.7571,-1.791 -1.1341,-3.763 -1.1341,-5.9128 0,-2.1493 0.377,-4.121 1.1341,-5.9123 0.7549,-1.7909 1.8008,-3.3448 3.136,-4.6578 1.3328,-1.3139 2.9058,-2.329 4.7179,-3.0462 1.81,-0.7157 3.8109,-1.0737 6.0021,-1.0737 2.149,0 4.159,0.4079 6.031,1.224 1.8709,0.8158 3.5839,2.0409 5.135,3.6728 l 5.017,-4.7168 c -1.9511,-2.3091 -4.3401,-4.051 -7.1671,-5.2263 -2.827,-1.1749 -5.953,-1.762 -9.3739,-1.762 -3.2272,0 -6.192,0.5281 -8.9002,1.582 z"
     style="fill:none"
     id="path8" />
  <path
     d="m 1513.5279,1959.2121 h 7.7641 v -17.9161 h 21.619 v 17.9161 h 7.7031 v -41.8039 h -7.7031 v 17.2587 h -21.619 v -17.2587 h -7.7641 z"
     style="fill:none"
     id="path9" />
  <path
     d="m 1561.9011,1959.2121 h 7.4038 v -27.3299 l 13.735,22.6119 h 3.5232 l 13.6769,-23.0439 v 27.7619 h 7.465 l -0.121,-41.8039 h -6.3879 l -16.3191,27.701 -16.588,-27.701 h -6.3879 z"
     style="fill:none"
     id="path10" />
  <path
     d="m 1613.0191,1959.2121 h 7.943 l 4.1539,-9.6749 h 20.9089 l 4.14,9.6749 h 8.1802 l -18.8702,-41.8039 h -7.6439 z m 22.572,-34.0611 7.8279,18.294 h -15.685 z"
     style="fill:none"
     id="path11" />
  <path
     d="m 1663.6,1959.2121 h 7.7641 v -12.183 h 9.4348 c 0.5581,0 1.0811,-0.04 1.616,-0.067 l 8.5371,12.2499 h 8.3611 l -9.625,-13.735 c 0.208,-0.085 0.4339,-0.1491 0.6358,-0.2401 2.6481,-1.195 4.6882,-2.887 6.1222,-5.076 1.433,-2.1889 2.151,-4.816 2.151,-7.8828 0,-3.1051 -0.718,-5.7722 -2.151,-8.0031 -1.434,-2.2291 -3.4741,-3.9311 -6.1222,-5.1072 -2.6479,-1.1729 -5.8218,-1.7597 -9.525,-1.7597 H 1663.6 Z m 7.7641,-35.2349 h 9.0759 c 3.424,0 6.003,0.7259 7.7349,2.179 1.732,1.4539 2.598,3.4948 2.598,6.122 0,2.628 -0.866,4.6788 -2.598,6.1509 -1.7319,1.474 -4.3109,2.2099 -7.7349,2.2099 h -9.0759 z"
     style="fill:none"
     id="path12" />
  <path
     d="m 1707.2561,1959.2121 h 7.7629 v -10.764 l 6.6291,-6.73 14.749,17.494 h 9.138 l -18.7152,-23.1281 17.5822,-18.6758 h -8.78 l -20.6031,21.4469 v -21.4469 h -7.7629 z"
     style="fill:none"
     id="path13" />
  <path
     d="m 1777.7829,1918.4221 c -2.7479,1.0761 -5.1358,2.579 -7.1668,4.51 -2.0311,1.9309 -3.604,4.2001 -4.718,6.8079 -1.1152,2.609 -1.671,5.463 -1.671,8.5692 0,3.0668 0.5558,5.904 1.671,8.511 1.114,2.6067 2.6869,4.8878 4.718,6.8377 2.031,1.9503 4.4288,3.4631 7.196,4.5383 2.7669,1.0738 5.7628,1.6138 8.9889,1.6138 3.223,0 6.2099,-0.5298 8.9561,-1.584 2.7479,-1.054 5.127,-2.5569 7.1368,-4.5088 2.0112,-1.9503 3.5722,-4.229 4.6882,-6.8381 1.116,-2.607 1.673,-5.4651 1.673,-8.5699 0,-3.1062 -0.557,-5.9712 -1.673,-8.5992 -1.116,-2.628 -2.677,-4.9071 -4.6882,-6.8369 -2.0098,-1.931 -4.3889,-3.424 -7.1368,-4.4802 -2.7462,-1.0539 -5.7331,-1.582 -8.9561,-1.582 -3.266,0 -6.2719,0.5372 -9.0181,1.6112 z m 3.1351,33.5039 c -1.8119,-0.7158 -3.3741,-1.7419 -4.6891,-3.0759 -1.313,-1.334 -2.349,-2.8959 -3.105,-4.688 -0.756,-1.7912 -1.1339,-3.7411 -1.1339,-5.8529 0,-2.1493 0.3779,-4.1091 1.1339,-5.8822 0.756,-1.7708 1.792,-3.3239 3.105,-4.657 1.315,-1.3349 2.8772,-2.3599 4.6891,-3.0771 1.8111,-0.7157 3.7709,-1.0737 5.883,-1.0737 2.109,0 4.0499,0.358 5.821,1.0737 1.7719,0.7172 3.325,1.7323 4.659,3.0462 1.334,1.313 2.359,2.8669 3.0759,4.6578 0.716,1.7913 1.0752,3.763 1.0752,5.9123 0,2.1498 -0.3691,4.1218 -1.105,5.9128 -0.737,1.7912 -1.762,3.344 -3.077,4.659 -1.313,1.313 -2.8562,2.3292 -4.6281,3.045 -1.7711,0.716 -3.712,1.0751 -5.821,1.0751 -2.1121,0 -4.0719,-0.3591 -5.883,-1.0751 z"
     style="fill:none"
     id="path14" />
  <path
     d="m 1817.496,1959.2121 h 7.763 v -16.0659 h 20.186 v -6.4491 h -20.186 v -12.7199 h 22.7531 v -6.569 h -30.5161 z"
     style="fill:none"
     id="path15" />
  <path
     d="m 1871.9589,1959.2121 h 7.7641 v -12.0651 h 9.4351 c 3.7029,0 6.878,-0.6049 9.5239,-1.8198 2.6481,-1.2152 4.689,-2.9271 6.1231,-5.1361 1.432,-2.2099 2.1498,-4.8461 2.1498,-7.9129 0,-3.1051 -0.7178,-5.7722 -2.1498,-8.0031 -1.4341,-2.2291 -3.475,-3.9311 -6.1231,-5.1072 -2.6459,-1.1729 -5.821,-1.7597 -9.5239,-1.7597 h -17.1992 z m 7.7641,-35.2349 h 9.076 c 3.4251,0 6.0029,0.7259 7.734,2.179 1.7331,1.4539 2.598,3.4948 2.598,6.122 0,2.628 -0.8649,4.6678 -2.598,6.1208 -1.7311,1.4542 -4.3089,2.1801 -7.734,2.1801 h -9.076 z"
     style="fill:none"
     id="path16" />
  <path
     d="m 1950.9681,1940.9372 v -23.529 h -7.6442 v 23.29 c 0,4.2987 -0.9158,7.4259 -2.747,9.3759 -1.8309,1.9519 -4.4388,2.927 -7.8239,2.927 -3.384,0 -6.0021,-0.9751 -7.852,-2.927 -1.851,-1.95 -2.7779,-5.0772 -2.7779,-9.3759 v -23.29 h -7.763 v 23.529 c 0,6.1319 1.622,10.8088 4.8668,14.0329 3.2451,3.2261 7.7142,4.8399 13.4082,4.8399 5.7319,0 10.22,-1.6138 13.4659,-4.8399 3.2451,-3.2241 4.8671,-7.901 4.8671,-14.0329 z"
     style="fill:none"
     id="path17" />
  <path
     d="m 1961.896,1959.2121 h 7.7649 v -12.183 h 9.434 c 0.559,0 1.0811,-0.04 1.6172,-0.067 l 8.5368,12.2499 h 8.3602 l -9.6262,-13.735 c 0.2101,-0.085 0.436,-0.1491 0.6381,-0.2401 2.6481,-1.195 4.6879,-2.887 6.122,-5.076 1.4329,-2.1889 2.1489,-4.816 2.1489,-7.8828 0,-3.1051 -0.716,-5.7722 -2.1489,-8.0031 -1.4341,-2.2291 -3.4739,-3.9311 -6.122,-5.1072 -2.6481,-1.1729 -5.8221,-1.7597 -9.5261,-1.7597 h -17.1989 z m 7.7649,-35.2349 h 9.076 c 3.4242,0 6.0021,0.7259 7.734,2.179 1.732,1.4539 2.598,3.4948 2.598,6.122 0,2.628 -0.866,4.6788 -2.598,6.1509 -1.7319,1.474 -4.3098,2.2099 -7.734,2.2099 h -9.076 z"
     style="fill:none"
     id="path18" />
  <path
     d="m 2005.5515,1959.2127 h 7.7641 v -41.8051 h -7.7641 z"
     style="fill:none"
     id="path19" />
  <path
     d="m 2033.0229,1959.2121 h 7.7632 v -35.2349 h 13.8549 v -5.0961 l 15.5271,25.5569 v 14.7741 h 7.7029 v -14.684 l 16.423,-27.1199 h -7.6439 l -12.3071,20.3428 -12.358,-20.3428 h -7.344 -0.896 -34.5781 v 6.569 h 13.856 z"
     style="fill:none"
     id="path20" />
  <path
     d="m 2387.9069,1328.862 c -83.6668,11.8812 -145.9848,55.747 -186.099,129.5541 -42.1299,77.514 -47.4659,159.9239 -22.917,243.5321 19.5511,66.583 61.2122,117.1808 123.5112,149.0808 47.4568,24.3011 98.6338,29.033 150.7419,23.2801 44.242,-4.8869 82.656,-23.0031 113.4641,-56.0239 9.7118,-10.408 18.5899,-21.4702 27.7109,-34.4081 0.419,3.018 0.9349,4.2219 0.6761,5.2271 -12.3032,47.6399 -31.019,92.1058 -64.9661,128.7819 -34.8959,37.6999 -77.4179,54.3711 -128.901,46.2339 -42.895,-6.779 -81.3501,-24.98 -118.8669,-45.6349 -44.3982,-24.446 -86.2651,-53.2661 -131.7342,-75.892 -64.5829,-32.1381 -132.0608,-47.1311 -203.8669,-33.2901 -44.757,8.627 -85.8149,25.818 -117.718,60.0812 -6.84,7.346 -13.5391,15.1018 -17.2349,26.7749 6.8009,-3.6581 11.666,-6.2101 16.467,-8.8741 4.8059,-2.666 9.559,-5.4309 14.3209,-8.176 65.177,-37.569 133.382,-42.8579 204.0381,-18.4028 50.3099,17.411 95.1338,45.5168 140.0108,73.4258 55.3181,34.4041 110.713,68.7691 175.985,81.622 47.6992,9.392 94.29,6.6132 138.6491,-14.9678 51.241,-24.929 86.0329,-65.7451 110.5259,-116.1482 4.5031,-9.2659 9.8382,-16.8591 18.8002,-22.8158 20.9299,-13.913 39.0609,-31.1981 52.3488,-52.7221 19.5381,-31.646 25.5742,-64.7842 9.3481,-100.0812 -9.5071,-20.6807 -29.2881,-33.7728 -39.0279,-54.1729 -13.0471,2.988 -25.024,9.6749 -38.507,11.139 -17.1652,1.8641 -34.338,5.175 -51.5282,0.3062 14.7612,-2.1141 29.1161,-5.614 43.437,-9.0992 20.5982,-5.0108 40.7602,-11.17 57.5022,-25.2159 6.5038,-5.455 10.6798,-12.1501 11.7729,-20.3669 1.5871,-11.9311 -5.8471,-16.4841 -17.2749,-13.7251 -9.7172,2.3491 -10.224,11.785 -16.4331,16.319 -13.3049,9.7181 -28.7759,13.8309 -44.6581,16.9311 -38.3678,7.49 -76.733,4.7928 -114.9049,-0.7943 -31.354,-4.5878 -62.6491,-10.224 -90.3461,-27.2718 -7.7859,-4.7931 -15.1268,-10.4491 -14.1188,-20.7629 0.949,-9.6991 8.8889,-14.2212 16.8259,-17.2781 15.0349,-5.792 30.5461,-9.96 47.1761,-7.7811 -4.0221,1.1121 -8.02,2.316 -12.069,3.3191 -12.0232,2.977 -23.4372,7.3369 -32.9321,15.5291 -5.7271,4.9388 -6.1421,11.0078 -1.4471,16.846 4.6911,5.8348 9.2052,5.1778 14.5182,-0.2342 4.83,-4.922 11.797,-7.503 18.6239,-6.4978 16.693,2.4548 30.3579,-7.4492 45.1729,-11.4812 15.4911,-4.2179 29.0951,-5.7501 44.2951,-0.936 14.352,4.5451 27.816,14.241 43.5809,11.7099 14.0191,-2.249 24.448,3.7112 35.3781,10.4131 6.7791,4.157 5.6191,7.0912 -0.212,10.5112 -11.312,6.6308 -23.76,10.2458 -38.7479,13.4458 41.1009,5.4791 83.277,-15.014 72.2568,-44.7979 -19.8819,17.047 -33.2909,15.166 -48.1578,-7.0061 -2.3151,-3.454 -3.9991,-7.416 -5.4652,-11.334 -2.266,-6.054 -5.944,-8.7999 -12.7029,-10.2498 -46.1041,-9.8802 -92.4579,-10.383 -138.822,-3.6352 -22.981,3.3441 -45.7971,8.828 -64.4621,24.2711 -12.9288,10.6968 -14.2948,23.3518 -4.261,36.6809 9.4192,12.5141 22.5601,20.19 36.0471,27.3101 19.2089,10.141 40.3421,15.179 60.762,22.2591 -22.7509,0.057 -45.282,-3.2412 -65.3411,-12.96 -15.634,-7.5711 -26.875,-10.586 -36.9939,6.4528 -2.2311,3.759 -6.76,6.408 -10.6741,8.8642 -9.7149,6.0967 -7.4449,10.6588 0.7761,16.2448 31.938,21.6941 67.2109,35.172 104.6489,43.507 26.5431,5.9102 53.568,8.0611 81.553,8.7032 -1.1749,1.6869 -1.3439,2.2209 -1.6449,2.3119 -1.586,0.4779 -3.185,1.002 -4.8189,1.228 -68.8402,9.5479 -132.7062,-6.283 -192.78,-39.1439 -10.571,-5.781 -12.8531,-1.912 -15.7,6.5579 -6.5341,19.4301 -6.7391,38.8931 -1.737,58.699 3.181,12.6028 10.0499,23.7079 15.669,38.3919 -11.4321,-10.2209 -19.163,-19.7158 -25.8511,-29.9738 -31.627,-48.5051 -41.9819,-102.708 -41.7991,-159.5262 0.2322,-72.1489 19.5341,-137.8888 68.1052,-192.807 30.3678,-34.336 67.735,-53.909 115.2459,-49.9221 25.8021,2.1671 40.4799,13.824 46.459,38.7822 2.361,9.8621 4.0771,19.9358 7.2411,29.5331 4.214,12.7769 10.5928,24.2889 25.761,26.6938 15.6359,2.4789 28.3688,-2.8768 37.7609,-15.478 6.173,-8.2828 9.481,-17.875 10.099,-28.2209 1.7841,-29.8491 -13.8419,-53.2921 -45.9409,-67.3429 -29.7031,-13.0022 -60.408,-18.356 -91.6432,-18.3572 -14.5539,-8e-4 -29.2198,1.1619 -43.96,3.255 z"
     style="fill:none"
     id="path21" />
  <path
     d="m 475.399,1039.7239 h -0.009 -0.009 c -0.1797,0 -0.339,0.025 -0.4884,0.078 -49.46,17.6689 -81.879,51.2988 -89.1811,103.8438 -6.73,48.435 11.5101,88.5521 49.6012,119.681 5.0709,4.1451 16.2519,4.4462 14.364,12.939 -1.5791,7.098 -10.8731,9.944 -17.5861,13.5301 -1.114,0.5939 -2.325,1.0108 -3.4971,1.495 -39.9008,16.4781 -57.9158,49.532 -67.883,88.9529 -2.749,10.87 1.3921,11.2991 10.0931,8.8662 15.154,-4.2392 30.4971,-7.8021 47.1129,-11.9892 -3.6068,7.6181 -8.7369,11.2649 -13.4869,15.4029 -13.936,12.1411 -18.614,46.5412 -8.686,61.9711 18.701,29.0571 56.772,36.8271 85.085,16.9622 5.5199,-3.8733 10.548,-4.788 16.5181,-2.3063 28.025,11.6533 48.568,29.7312 55.6469,60.9373 6.2011,27.3319 6.2099,55.4349 11.7289,82.7909 3.7851,18.7659 12.3251,34.001 31.2092,41.5859 10.8819,4.3691 19.2039,11.6601 25.6518,21.71 10.6441,16.5889 23.567,30.9742 43.1201,37.5171 5.849,1.9579 8.392,6.037 9.3101,12.1641 6.0919,40.6907 4.1828,81.0189 -5.54,120.9078 -6.4752,26.5652 -6.8182,26.6831 20.7589,24.8502 38.416,-2.552 76.79,-6.2651 115.282,-1.0142 6.2671,0.854 12.7051,1.252 18.998,0.8441 1.08,-0.069 2.3089,0.1109 3.564,0.2909 3.746,0.54 7.7239,1.08 8.6361,-5.0579 1.002,-6.745 -1.4242,-10.6251 -8.7242,-12.8421 -12.0719,-3.6649 -19.7238,-12.7349 -23.5658,-24.705 -3.6241,-11.2879 -6.0761,-22.788 -6.7312,-34.7381 -2.1339,-38.9228 -0.9059,-77.8699 -1.211,-116.8038 -0.026,-3.3151 -0.2868,-7.4741 1.4641,-9.8189 10.558,-14.1302 21.6701,-27.845 33.3729,-42.683 2.5651,4.8458 4.356,8.1539 6.0792,11.4968 26.498,51.4261 52.6419,103.0351 79.6229,154.203 13.0229,24.698 26.75,49.513 51.8621,64.402 42.1628,24.999 87.4259,21.454 133.0328,13.0521 4.6961,-0.864 5.9,-3.973 6.1251,-8.2202 0.284,-5.3688 -2.5189,-7.1489 -7.348,-8.3077 -39.344,-9.434 -66.96,-34.5411 -88.8449,-67.146 -47.4712,-70.7202 -82.3161,-148.2982 -121.57,-223.4871 -2.804,-5.372 -1.228,-8.379 1.8938,-12.267 36.0142,-44.8429 72.216,-89.5391 107.8022,-134.7191 31.657,-40.1899 71.4648,-64.9519 123.266,-69.0511 6.633,-0.5258 9.9099,0.8221 12.63,6.9412 8.0898,18.1899 7.903,36.9471 5.326,56.0568 -0.54,4.0043 -3.3001,8.6052 0.7229,11.9472 4.058,3.371 2.9769,6.014 0.576,9.612 -2.3349,3.5 -4.9391,8.1491 0.14,11.018 5.618,3.172 8.5331,-1.2951 10.29,-5.9131 1.6611,-4.3568 3.8651,-6.457 8.2531,-3.3049 3.0288,2.1739 8.6828,2.5078 5.3158,9.021 -2.2629,4.3739 -4.4558,10.607 1.7291,13.0941 6.7261,2.7039 8.5309,-3.7951 9.8119,-8.5992 1.726,-6.467 6.1721,-4.286 10.116,-3.8339 4.9972,0.5709 4.3741,3.473 3.4092,7.3089 -1.4831,5.8909 -0.2491,12.136 6.715,12.435 6.1279,0.2642 6.1648,-6.1078 5.785,-10.6631 -0.4502,-5.3719 1.404,-7.3689 6.7399,-8.0249 5.377,-0.661 7.717,0.4692 8.172,6.236 0.3881,4.9121 3.0861,9.6349 8.9249,8.1261 5.2231,-1.3491 5.1471,-6.5801 3.5192,-10.6161 -2.1232,-5.265 -1.6311,-8.253 3.939,-10.974 6.1858,-3.0229 6.7808,1.1792 9.0459,4.8101 2.3321,3.7341 5.552,9.0709 10.827,4.6199 4.0521,-3.418 3.401,-8.797 -0.6251,-12.263 -6.7289,-5.796 -1.796,-8.2958 1.9922,-12.632 5.9658,-6.827 8.206,-0.059 10.5718,2.4911 30.0212,32.3719 65.1881,45.917 108.4612,30.2111 5.804,-2.107 7.621,-0.3322 7.998,5.2829 0.6239,9.2869 1.3589,18.582 2.5648,27.8059 0.4371,3.348 -2.5419,10.0542 5.083,8.642 5.1602,-0.955 12.456,-0.6358 11.149,-10.0299 -1.137,-8.16 -1.2169,-16.467 -1.7649,-24.709 6.1699,7.4279 9.6551,15.0789 11.4889,23.4009 0.826,3.7451 1.7101,7.9302 6.3782,8.454 9.9609,1.1191 18.847,5.828 28.5049,8.9671 1.2291,-8.2 -0.7801,-15.2061 -1.8499,-22.2361 -13.3821,-87.9298 -78.8862,-154.07 -166.3781,-168.561 -42.0069,-6.9568 -82.5511,1.8711 -122.98,11.0029 -62.829,14.1911 -125.602,22.246 -189.5479,6.4962 -13.7931,-3.3959 -23.614,-6.7862 -20.9602,-23.6619 0.6091,-3.8761 -1.1458,-8.3152 -2.473,-12.2741 -13.2298,-39.4939 -60.7538,-60.688 -101.9899,-46.059 -20.5141,7.2768 -37.3661,19.889 -51.85,35.394 -38.6461,41.3711 -100.19,26.6471 -137.1319,-0.6571 29.374,-13.2591 52.2998,-33.09 67.07,-61.4999 15.0709,-28.9899 18.3039,-59.1219 10.2438,-91.0001 -10.11,-39.9829 -51.1078,-80.93 -89.0699,-86.1678 3.888,8.8889 10.5301,14.7589 15.8879,21.4498 19.921,24.872 32.83,52.0551 29.4891,85.0402 -4.3849,43.2728 -40.9941,75.975 -83.5129,74.4769 -4.6231,-0.163 -10.0032,-0.9221 -13.7991,1.012 -20.3369,10.3609 -40.3571,6.239 -60.357,2.1169 -13.4651,-2.776 -26.92,-5.5508 -40.456,-3.907 -1.099,0.1329 -2.3831,-0.792 -3.5039,-1.3728 -30.3432,-15.7111 -48.841,-39.9782 -51.9781,-74.4183 -3.2519,-35.7029 14.383,-63.3319 36.2401,-89.0498 4.1298,-4.858 9.004,-9.267 11.4939,-15.8771 -1.637,-0.197 -2.5611,-0.4831 -3.217,-0.4831 z m -64.3969,364.1851 c 15.5758,-12.8168 26.1708,-28.7339 35.295,-45.7631 7.5529,-14.0998 12.333,-28.5967 9.9128,-44.9368 -1.7448,-11.7759 0.678,-22.7591 8.475,-32.1519 7.09,-8.5411 11.969,-18.2061 16.2612,-28.4542 6.2308,-14.881 17.4699,-21.4058 32.3479,-16.9929 25.6161,7.6 50.7061,7.805 76.0759,-0.089 8.5082,-2.647 13.3982,-1.796 11.516,9.5879 -2.1268,12.869 6.0602,22.2112 15.2042,31.7421 -4.8121,2.6708 -9.163,3.0439 -13.6162,3.4418 -1.4389,0.1302 -2.884,-0.093 -4.4459,-0.3157 -3.2581,-0.4661 -7.0251,-0.9312 -12.295,1.7949 43.2471,11.95 69.363,39.8721 88.145,75.8369 -13.7681,-14.809 -30.99,-24.5698 -48.4449,-33.9959 -7.2471,-3.9129 -12.5541,-9.947 -17.8832,-15.9791 -1.635,-1.8511 -2.9648,-4.72 -5.938,-3.8331 -3.0339,0.9071 -2.7939,3.9462 -2.5739,6.4472 1.7521,19.7889 1.9899,39.816 7.109,59.1341 4.436,16.7369 15.234,28.9978 29.8939,37.8827 16.9931,10.3003 34.1932,20.2632 51.0511,30.7752 7.094,4.4229 10.4959,4.0091 10.9939,-5.1641 2.433,-44.826 -2.4809,-87.2431 -38.156,-119.9291 -1.527,-1.3989 -2.734,-3.1459 -5.0128,-5.8099 36.1689,6.717 51.6059,29.7 54.6678,62.985 0.9692,10.5251 2.1252,21.0901 2.1311,31.6361 0.053,117.6891 -0.0921,235.377 -0.212,353.0659 -0.0221,21.611 -1.7921,43.082 -6.319,64.2362 -1.9151,8.9557 -5.29,17.3619 -14.0309,26.0158 7.9608,-73.3918 6.5489,-142.9078 -27.5862,-207.8799 -0.557,19.1888 7.488,37.4749 6.374,58.0439 -12.4169,-4.8209 -21.5938,-12.3239 -27.6568,-22.4169 -9.8932,-16.464 -22.3552,-29.2139 -40.3722,-36.6761 -9.989,-4.1369 -15.1909,-12.975 -17.939,-23.29 -1.1138,-4.182 -1.2039,-7.4849 3.901,-8.8648 5.866,-1.5871 4.4501,2.9188 5.2801,5.8669 1.6169,5.7449 4.6471,11.0219 11.5061,8.0829 6.702,-2.8729 5.9919,-9.339 2.3168,-13.9209 -5.6988,-7.1082 0.0521,-9.017 4.011,-12.6439 5.8581,-5.366 7.3162,-0.599 9.9351,3.3208 2.9549,4.4231 7.6981,6.254 12.0059,2.745 4.6891,-3.8219 2.827,-9.4308 -1.1069,-12.0719 -12.1099,-8.1312 -0.485,-12.6059 2.7751,-17.3749 2.9489,-4.3132 4.676,1.1239 6.0018,3.0109 2.7941,3.9739 6.2362,5.472 10.887,4.5 3.1241,-0.6539 3.8041,-3.3242 4.032,-5.7481 0.4771,-5.085 -2.8089,-7.9398 -7.1708,-9.049 -6.6441,-1.6909 -6.855,-4.7378 -3.257,-9.7909 2.1759,-3.056 3.6139,-6.637 5.3708,-9.9601 4.9841,-0.4949 4.1,4.6851 6.7331,6.3902 2.939,1.9009 5.595,3.956 9.239,2.0769 1.9729,-1.0179 3.3369,-2.6019 3.5501,-4.9011 0.3648,-3.9339 -1.605,-7.344 -5.1191,-7.6878 -13.54,-1.3241 -8.926,-8.172 -5.8711,-15.8191 8.337,-20.8621 13.9042,-42.4981 16.2621,-64.9091 0.578,-5.4958 2.4321,-12.4798 -4.834,-13.6828 -7.952,-1.3162 -5.199,7.0659 -6.0851,10.8368 -7.886,33.541 -18.1179,66.0541 -38.086,94.68 -9.5258,13.6571 -20.4559,26.0771 -35.5008,33.7632 -3.0152,1.5409 -8.7421,7.706 -11.2822,0.4238 -1.7889,-5.127 -4.8489,-12.5688 2.6841,-16.979 50.1239,-29.3408 61.0461,-79.8089 70.606,-130.987 0.2729,-1.4629 -0.533,-3.1269 -1.046,-5.775 -4.218,2.6351 -4.5919,6.0871 -5.548,9.5641 -7.763,28.2628 -17.8991,55.5369 -34.5759,79.95 -7.4752,10.9409 -16.539,20.2989 -27.909,27.258 -4.86,2.975 -9.1962,3.4418 -9.8431,-3.7701 -3.6941,-41.14 -24.9811,-69.0179 -65.5979,-84.312 10.7838,-4.138 19.6449,-5.3319 28.7679,-5.9899 32.2481,-2.3261 52.471,-18.0141 59.8031,-45.737 1.0919,-4.134 1.9358,-8.1059 0.597,-12.2 -5.8031,-1.0072 -4.964,4.0961 -6.194,6.5469 -12.289,24.4752 -31.473,37.9752 -59.292,38.3851 -11.7952,0.174 -23.4161,1.724 -34.6212,5.8629 -2.7989,-5.9939 1.923,-12.0538 -2.126,-18.3819 -7.0319,5.4879 -8.4299,13.697 -11.7419,20.6201 -4.1369,8.6508 -11.0699,11.7139 -19.789,9.5499 -10.0009,-2.484 -19.271,-6.8819 -23.4071,-17.3971 -1.73,-4.3971 1.944,-4.5249 4.9731,-4.981 10.412,-1.569 15.1589,-8.6998 13.072,-18 -2.101,-9.36 -10.69,-9.5389 -18.7041,-7.8049 -3.8968,0.8419 -7.765,1.525 -11.7068,1.525 -5.3921,0 -10.9231,-1.277 -16.867,-5.1681 z m 384.4959,130.2939 c 0.551,-63.4708 -2.0231,-126.9839 1.4779,-190.4017 1.2722,-23.0142 7.5461,-45.0023 23.1171,-63.1891 16.2199,-18.9482 43.3749,-26.0869 69.569,-16.6461 20.9759,7.56 34.6729,22.1799 36.8269,45.553 1.5242,16.5342 7.799,25.9971 22.3841,34.4769 11.639,6.768 13.6749,17.2673 11.1869,29.5541 -5.6219,27.763 -20.9089,50.7741 -37.6778,72.4311 -40.0992,51.787 -81.303,102.7199 -122.091,153.9729 -0.6982,0.8761 -1.7782,1.4462 -4.824,3.8539 0,-24.8048 -0.163,-47.2067 0.0309,-69.605 z M 440.0039,1302.666 c -5.3359,7.9959 -14.9009,7.391 -22.5689,10.644 5.9281,-6.792 13.502,-10.233 22.5689,-10.644 z m -5.044,18.485 c 6.228,-1.9931 7.369,-0.345 7.369,5.3572 0,14.8339 -10.5999,31.1289 -24.556,36.6207 -6.2558,2.4631 -12.6879,4.5443 -19.156,6.3891 -6.3958,1.8221 -12.9398,3.1271 -21.9968,5.2681 12.856,-27.631 31.4419,-45.0229 58.3398,-53.6351 z m 832.775,72.8881 c -10.383,-17.2171 -16.5529,-35.7682 -18.6508,-55.9171 -1.1591,-11.132 2.679,-13.792 13.2199,-13.1689 56.2589,3.323 142.8789,52.9259 158.3169,135.8438 -16.2938,-32.434 -35.3738,-58.6638 -65.372,-75.1538 4.2001,12.996 12.454,23.658 17.572,36.004 4.3492,10.4919 0.9071,14.4261 -9.002,16.956 -6.918,1.7668 -13.8059,2.6339 -20.5719,2.6339 -29.662,0 -57.0889,-16.6498 -75.5121,-47.1979 z m -54.074,17.2408 c 7.327,-2.4338 13.8611,-6.5698 19.031,-12.2298 6.876,-7.5271 -2.088,-12.8749 -3.7908,-19.023 -4.072,-14.7041 -7.829,-29.351 -8.2811,-44.672 -0.1219,-4.1301 -1.1639,-8.583 5.4961,-9.1001 6.1219,-0.4759 7.1098,3.0022 7.3428,7.659 1.048,20.9531 6.7221,40.7531 15.2771,59.758 1.995,4.4331 1.6699,7.579 -1.4349,11.421 -20.7372,25.651 -63.9502,29.4852 -89.2041,7.8132 -7.899,-6.7771 -0.928,-15.118 -2.9361,-21.924 0.9462,-15.1572 -1.8879,-29.1161 -7.071,-42.6881 -1.3218,-3.4619 -3.634,-7.223 2.567,-8.7899 4.8481,-1.2252 7.8971,-0.5032 9.6812,4.8288 4.5978,13.7432 9.015,28.0111 6.7969,42.1801 -2.484,15.8799 5.582,21.0469 18.0029,24.751 4.9141,1.4649 9.809,2.258 14.6851,2.258 4.627,0 9.239,-0.7132 13.8379,-2.2422 z m -599.0448,-74.0698 c 37.8459,11.7879 60.838,37.22 66.3948,79.596 -50.9148,-22.021 -66.4969,-40.462 -66.3948,-79.596 z m -197.2942,122.0471 c 14.4652,-1.6611 27.58,2.3309 40.1301,8.9027 -4.642,1.0843 -9.1939,1.7141 -13.6159,1.7141 -9.5661,0 -18.5301,-2.946 -26.5142,-10.6168 z"
     style="fill:none"
     id="path22" />
  <path
     d="m 1541.5291,1389.1311 c -18.7132,0.8709 -35.466,7.2239 -50.6571,17.921 -3.24,2.281 -7.74,3.9449 -4.877,9.8419 2.5619,5.282 5.4941,2.8672 9.2531,1.9751 11.723,-2.7842 16.6309,0.6259 17.7999,12.7129 0.9731,10.08 1.2481,20.2611 1.26,30.399 0.1159,96.0531 0.031,192.107 0.193,288.159 0.036,21.5382 9.4221,29.499 33.4001,29.435 24.0298,-0.064 33.2359,-8.1709 33.2858,-29.6249 0.094,-39.7749 -0.9629,-79.5861 0.398,-119.3151 1.2461,-36.36 20.198,-63.9989 49.674,-83.9919 14.6892,-9.965 27.9922,-1.7502 28.16,16.1991 0.1012,10.8048 -3.7109,20.7298 -9.0618,29.9979 -12.9612,22.4479 -30.8191,40.0431 -53.1641,53.1119 -4.17,2.439 -9.068,3.265 -5.8819,10.8621 22.773,54.307 48.511,107.0039 84.7488,153.7671 32.6311,42.1069 88.3582,53.7029 134.3401,28.8788 3.689,-1.9931 9.3059,-3.259 6.7709,-10.054 -2.145,-5.748 -5.9809,-4.2171 -10.2408,-3.3899 -14.1942,2.7499 -26.721,-1.8831 -38.3811,-9.4861 -12.543,-8.1789 -22.7511,-18.8898 -31.9229,-30.585 -29.6141,-37.7649 -51.3351,-80.2718 -73.7371,-122.4048 -4.634,-8.714 -3.897,-12.71 5.0749,-18.2991 25.1391,-15.6572 43.977,-36.832 49.8042,-67.1621 7.9718,-41.5029 -18.7671,-69.925 -60.67,-64.876 -15.6761,1.889 -28.8751,8.9351 -41.2421,18.112 -13.3299,9.894 -22.8121,23.2951 -34.5489,39.657 0,-10.7079 0.01,-17.464 0,-24.219 -0.035,-40.1981 0.2219,-80.399 -0.2121,-120.5929 -0.282,-26.1589 -11.014,-37.1282 -35.3778,-37.1301 -1.3552,0 -2.747,0.034 -4.187,0.1011 z"
     style="fill:none"
     id="path23" />
  <path
     d="m 1365.2969,1527.846 c -11.471,7.505 -19.9378,17.9552 -30.4189,30.3301 -1.1701,-7.331 -1.6951,-11.48 -2.5101,-15.573 -3.0109,-15.1211 -15.129,-26.5481 -30.5078,-28.01 -23.694,-2.251 -43.6062,7.5589 -62.538,20.3349 -4.015,2.71 -2.7332,5.364 -1.1242,8.5332 1.567,3.0858 2.9582,3.708 6.8142,2.446 13.932,-4.5621 19.1248,-1.2682 21.5008,13.2899 1.0842,6.6359 1.2492,13.4759 1.2552,20.2241 0.058,56.7258 -0.011,113.453 -0.059,170.1788 -0.01,8.1371 -0.05,16.3392 7.1529,22.03 14.1801,11.2059 30.1119,9.7702 45.798,4.94 14.72,-4.5318 15.3649,-17.2548 15.3241,-30.0751 -0.1491,-47.8369 -0.1021,-95.6729 -0.1301,-143.5099 -0.01,-16.9018 7.31,-30.2261 20.609,-40.0989 14.3141,-10.627 31.3761,-6.8609 39.7709,8.794 3.151,5.875 5.739,12.4211 6.8621,18.9581 10.296,59.9147 8.9181,119.6059 -5.498,178.7249 -3.68,15.09 -11.0829,28.901 -26.688,34.9881 -6.9811,2.7218 -7.1129,6.2838 -6.1809,12.3718 1.3309,8.6819 7.348,5.468 11.6158,4.9062 33.8431,-4.4481 60.2121,-21.9382 75.528,-51.675 35.5901,-69.1002 37.859,-141.785 11.823,-213.8361 -10.2529,-28.3739 -30.8659,-42.705 -54.824,-42.707 -13.858,0 -28.832,4.792 -43.575,14.4349 z"
     style="fill:none"
     id="path24" />
  <path
     d="m 1049.703,1534.4169 c -18.3129,13.6052 -25.7479,38.1323 -17.4611,57.6063 4.8061,11.2949 16.67,18.8699 29.302,18.3299 11.592,-0.496 20.7502,-5.6661 24.143,-17.0061 3.7031,-12.375 -2.3729,-20.8919 -13.248,-26.9779 -8.0958,-4.5301 -7.39,-11.1229 -1.1359,-16.5271 13.9351,-12.043 30.2341,-14.438 47.5229,-9.1509 14.9161,4.561 23.1261,15.7029 24.8621,30.6491 2.042,17.5938 -1.186,33.8578 -17.6681,44.4518 -11.933,7.67 -25.8418,10.2551 -38.8899,15.0471 -27.3889,10.0559 -53.7761,21.4101 -66.0039,50.974 -17.6822,42.759 2.0069,99.919 58.985,99.18 27.5159,-0.3571 49.3849,-12.2142 65.5229,-34.1141 2.8621,1.2552 3.0041,3.5011 3.8239,5.417 9.4952,22.201 25.6632,31.29 49.517,27.6492 19.1962,-2.9302 32.8561,-14.2781 44.2352,-29.2462 3.2009,-4.212 1.0279,-6.7479 -1.235,-9.8929 -3.53,-4.904 -5.3561,-0.5431 -7.9382,1.1279 -10.9978,7.122 -18.4989,3.903 -20.622,-9.1678 -0.8748,-5.3842 -0.635,-10.9741 -0.6458,-16.4702 -0.077,-38.9338 0.2089,-77.8708 -0.2191,-116.801 -0.307,-27.875 -8.1859,-52.45 -33.1041,-68.771 -16.7369,-10.9639 -39.0379,-16.3829 -61.4889,-16.3849 -25.0611,0 -50.311,6.7499 -68.254,20.0778 z m 39.9861,199.3672 c -15.2532,-24.3961 -11.91,-78.4899 30.1198,-91.9559 16.124,-5.1662 24.1631,-0.035 24.2201,16.5348 0.024,7.1702 0,14.3401 0,24.0182 -0.97,10.0179 1.8918,22.7268 -2.3241,35.1408 -3.3979,10.006 -9.1979,17.9311 -18.0111,23.603 -4.697,3.022 -9.574,4.502 -14.2449,4.5031 -7.7219,8e-4 -14.8839,-4.0411 -19.7629,-11.844 z"
     style="fill:none"
     id="path25" />
  <path
     d="m 2006.644,1524.2902 c -54.3759,24.0338 -72.7059,70.435 -75.7089,125.6439 0.216,17.214 2.035,33.8899 7.4809,50.1509 13.9859,41.752 41.4581,69.8522 84.9569,78.3351 45.6562,8.9019 84.2882,-5.4411 113.2251,-42.6912 3.265,-4.2009 10.8099,-8.8398 3.187,-15.9879 -7.9251,-7.431 -10.2379,1.955 -13.7081,4.981 -29.6648,25.8681 -67.64,25.424 -94.564,-1.6429 -10.6679,-10.7269 -16.6949,-24.1081 -21.922,-38.056 -3.081,-8.2199 -0.815,-11.6651 7.52,-14.5622 30.693,-10.6659 61.1011,-22.2009 88.6272,-39.9429 49.898,-32.1619 29.554,-85.6421 -2.9092,-103.7299 -16.2329,-9.0451 -32.6489,-13.195 -49.0989,-13.1962 -15.704,0 -31.4379,3.782 -47.086,10.6983 z m -4.885,112.303 c 0.2869,-3.7832 0.048,-7.6062 0.048,-11.412 0.028,-22.2563 3.5861,-43.8013 14.7101,-63.4091 6.5081,-11.4721 14.9741,-20.7779 29.994,-19.3921 14.6361,1.351 20.2419,12.2329 24.7249,24.0021 10.3331,27.1259 0.099,53.413 -25.9608,65.7009 -10.2731,4.8441 -21.4081,7.8831 -31.6021,12.867 -3.0809,1.5072 -5.455,2.2232 -7.2459,2.2232 -4.1502,8e-4 -5.1772,-3.8392 -4.6681,-10.58 z"
     style="fill:none"
     id="path26" />
  <path
     d="m 1863.69,1530.8031 c -10.3009,9.4569 -17.517,21.528 -28.482,34.9769 -0.8711,-8.5649 -1.3691,-14.413 -2.0769,-20.2348 -1.9591,-16.1031 -13.3892,-28.8261 -29.2071,-30.7123 -23.6401,-2.8179 -43.7879,6.4883 -62.4549,19.9401 -3.4472,2.484 -3.3282,5.0122 -1.8031,8.708 2.158,5.235 4.8951,2.3661 7.888,1.459 11.802,-3.5751 18.1709,0.1412 20.4369,13.091 1.2991,7.431 1.0261,15.1792 1.0312,22.784 0.036,56.287 0.028,112.5751 -0.14,168.8621 -0.028,9.83 1.5789,18.8359 10.6339,24.2561 14.1341,8.4628 29.412,7.8128 43.9061,2.101 13.771,-5.4281 14.1299,-18.6341 14.1449,-31.2191 0.057,-46.5531 0.112,-93.1059 0.22,-139.659 0.011,-4.5629 -0.783,-9.2421 2.8321,-13.2171 10.004,-11.003 20.419,-21.4228 34.558,-27.131 15.5959,-6.2988 30.778,-2.404 38.0568,9.8161 1.5891,2.6669 1.5211,7.702 5.8552,6.6989 4.1128,-0.9499 7.058,-4.6489 7.8169,-9.1599 2.0429,-12.136 3.573,-24.3289 1.025,-36.5859 -2.6139,-12.5621 -11.7899,-20.1232 -24.768,-21.4932 -1.4749,-0.1559 -2.9149,-0.231 -4.3209,-0.231 -14.2021,-8e-4 -25.0191,7.6482 -35.1521,16.9501 z"
     style="fill:none"
     id="path27" />
  <path
     d="m 2612.965,1478.742 c -7.7281,10.5519 -16.2309,20.5781 -21.3681,32.828 -10.7699,25.6739 -2.4698,53.7681 21.1822,67.0291 -11.575,-32.7979 9.2239,-53.0991 27.3829,-77.8169 0.182,16.09 4.6959,28.0159 10.9531,39.5249 7.3148,13.454 2.7448,26.1479 -3.6621,38.5401 -1.3799,2.6688 -5.6089,4.1748 -3.797,8.39 46.0341,-17.0621 54.3691,-62.153 35.409,-103.9142 -5.3901,6.2462 -5.743,16.2142 -14.7759,19.681 1.4809,-40.1531 -7.211,-64.3981 -30.844,-84.947 3.4999,24.1381 -7.3891,42.81 -20.4801,60.685 z"
     style="fill:none"
     id="path28" />
  <path
     d="m 520.1181,1332.201 c 20.5968,1.2951 39.206,-2.0089 51.0789,-20.238 -11.4849,-2.899 -19.9341,-4.5601 -26.426,-4.5609 -13.3631,0 -18.4371,7.0359 -24.6529,24.7989 z"
     style="fill:none"
     id="path29" />
  <path
     d="m 495.955,1272.0441 c -3.2539,6.139 -5.794,14.381 1.7249,17.8779 7.3712,3.427 12.2652,-3.428 14.5771,-10.1268 2.8511,-8.2661 5.4471,-16.6932 5.8799,-26.2982 -9.629,4.222 -17.4838,9.684 -22.1819,18.5471 z"
     style="fill:none"
     id="path30" />
  <path
     d="m 670.8127,1509.569 h -0.0477 c -2.899,0 -6.0499,0.7781 -5.4371,4.7571 0.722,4.6911 3.5501,8.6 11.094,8.4379 1.6781,-0.201 5.5241,-0.525 5.354,-5.0839 -0.2128,-5.7359 -4.6649,-7.691 -9.5269,-8.0521 -0.4573,-0.034 -0.9437,-0.058 -1.4363,-0.059 z"
     style="fill:none"
     id="path31" />
  <path
     d="m 681.5648,1484.994 h -0.0757 c -3.1972,0 -6.668,0.73 -6.5991,4.771 0.0751,4.379 4.066,6.1541 7.869,6.715 3.4259,0.5071 5.2999,-1.7818 5.8561,-4.9609 -0.2282,-4.151 -2.49,-6.3811 -6.3272,-6.5112 -0.2381,-0.01 -0.4799,-0.013 -0.7231,-0.014 z"
     style="fill:none"
     id="path32" />
  <path
     d="m 1169.7094,1943.3906 v -10.1611 H 661.6933 v 10.1611 z"
     style="fill:none"
     id="path33" />
  <path
     d="m 2757.4999,1273.2721 h -0.054 c -1.0392,0 -1.444,0.407 -1.7822,1.385 -5.0448,14.5891 -10.4899,29.037 -15.2739,43.7179 -0.097,0.3002 -0.014,0.7741 -0.555,0.86 -0.114,-0.3129 -0.2299,-0.6179 -0.3331,-0.928 -4.966,-14.7498 -10.44,-29.3191 -15.6118,-43.9949 -0.2211,-0.629 -0.449,-1.04 -1.262,-1.029 -3.492,0.049 -6.9851,0.043 -10.4791,0.01 -0.8291,-0.01 -1.0179,0.2889 -1.0171,1.0721 0.017,22.0668 0.017,44.1348 -0.01,66.204 0,0.8138 0.246,1.0658 1.042,1.0547 2.588,-0.036 5.1809,-0.092 7.7641,0.023 1.3079,0.057 1.5469,-0.3901 1.5338,-1.5942 -0.1669,-15.1988 0.2741,-30.4019 -0.343,-45.6469 0.3952,0.2251 0.377,0.5919 0.485,0.889 4.6911,12.886 9.383,25.772 14.046,38.6679 0.2812,0.783 0.6372,1.0899 1.4902,1.0559 1.7628,-0.07 3.5328,-0.057 5.2988,0 0.7852,0.026 1.1432,-0.2398 1.4122,-0.989 4.642,-12.9027 9.3138,-25.7958 13.9898,-38.6869 0.1182,-0.324 0.086,-0.758 0.58,-0.961 -0.051,0.847 -0.1168,1.6509 -0.144,2.4571 -0.4918,14.5848 -0.1089,29.1739 -0.2509,43.7598 -0.01,0.8621 0.313,1.0333 1.0709,1.0251 2.795,-0.029 5.59,-0.044 8.3852,0.01 0.8748,0.015 1.086,-0.2741 1.086,-1.1191 -0.023,-22.068 -0.024,-44.1372 0,-66.204 8e-4,-0.84 -0.2571,-1.027 -1.0381,-1.0191 -3.3279,0.039 -6.658,0.072 -9.985,-0.011 z"
     style="fill:none"
     id="path34" />
  <path
     d="m 2700.8861,1273.2812 c -6.6141,0.044 -13.2281,0.022 -19.8422,0.022 -9.4899,0 -18.9808,0.014 -28.4709,-0.019 -0.8989,0 -1.203,0.199 -1.1761,1.148 0.07,2.503 0.069,5.012 0,7.5161 -0.026,0.9558 0.3022,1.152 1.19,1.1469 5.464,-0.038 10.9281,-0.019 16.3922,-0.019 2.2518,0 2.2529,0 2.2529,2.2802 0,18.3229 0.01,36.6457 -0.021,54.9689 0,1.0151 0.261,1.332 1.2968,1.3059 2.791,-0.071 5.5882,-0.076 8.3792,0 1.1129,0.031 1.4488,-0.2529 1.444,-1.41 -0.05,-9.2849 -0.029,-18.57 -0.028,-27.8549 0,-9.2429 0.021,-18.487 -0.025,-27.7299 -0.01,-1.1872 0.214,-1.6152 1.5318,-1.5951 3.4781,0.05 6.9602,0.047 10.44,0.042 2.2711,0 4.542,0 6.8142,0.01 0.8459,0 1.1438,-0.2243 1.1259,-1.099 -0.052,-2.4631 -0.064,-4.9312 0,-7.3931 0.028,-1.01 -0.2679,-1.3189 -1.2759,-1.3201 -0.01,0 -0.02,0 -0.031,0 z"
     style="fill:none"
     id="path35" />
</svg>
