<?xml version="1.0" encoding="utf-8"?>
<!-- Generator: Adobe Illustrator 24.0.0, SVG Export Plug-In . SVG Version: 6.00 Build 0)  -->
<svg version="1.1" id="Layer_1" xmlns="http://www.w3.org/2000/svg" xmlns:xlink="http://www.w3.org/1999/xlink" x="0px" y="0px"
	 viewBox="0 0 3061.42 3061.42" style="enable-background:new 0 0 3061.42 3061.42;" xml:space="preserve">
<style type="text/css">
	.st0{fill:url(#SVGID_1_);}
	.st1{fill:url(#SVGID_2_);}
	.st2{fill:url(#SVGID_3_);}
	.st3{fill:url(#SVGID_4_);}
	.st4{fill:url(#SVGID_5_);}
	.st5{fill:url(#SVGID_6_);}
	.st6{fill:url(#SVGID_7_);}
	.st7{fill:url(#SVGID_8_);}
	.st8{fill:url(#SVGID_9_);}
	.st9{fill:url(#SVGID_10_);}
	.st10{fill:url(#SVGID_11_);}
	.st11{fill:url(#SVGID_12_);}
	.st12{fill:url(#SVGID_13_);}
	.st13{fill:url(#SVGID_14_);}
	.st14{fill:url(#SVGID_15_);}
	.st15{fill:url(#SVGID_16_);}
	.st16{fill:url(#SVGID_17_);}
	.st17{fill:url(#SVGID_18_);}
	.st18{fill:url(#SVGID_19_);}
	.st19{fill:url(#SVGID_20_);}
	.st20{fill:url(#SVGID_21_);}
	.st21{fill:url(#SVGID_22_);}
	.st22{fill:url(#SVGID_23_);}
	.st23{fill:url(#SVGID_24_);}
	.st24{fill:url(#SVGID_25_);}
	.st25{fill:url(#SVGID_26_);}
	.st26{fill:url(#SVGID_27_);}
	.st27{fill:url(#SVGID_28_);}
	.st28{fill:url(#SVGID_29_);}
	.st29{fill:url(#SVGID_30_);}
	.st30{fill:url(#SVGID_31_);}
	.st31{fill:url(#SVGID_32_);}
	.st32{fill:url(#SVGID_33_);}
	.st33{fill:url(#SVGID_34_);}
</style>
<g>
	<linearGradient id="SVGID_1_" gradientUnits="userSpaceOnUse" x1="1190.0293" y1="1938.7267" x2="1225.5031" y2="1938.7267">
		<stop  offset="0" style="stop-color:#9C752A"/>
		<stop  offset="1" style="stop-color:#FFE26A"/>
	</linearGradient>
	<polygon class="st0" points="1190.03,1924.39 1203.88,1924.39 1203.88,1959.63 1211.65,1959.63 1211.65,1924.39 1225.5,1924.39 
		1225.5,1917.82 1190.03,1917.82 	"/>
	<linearGradient id="SVGID_2_" gradientUnits="userSpaceOnUse" x1="1231.3552" y1="1938.7267" x2="1268.4407" y2="1938.7267">
		<stop  offset="0" style="stop-color:#9C752A"/>
		<stop  offset="1" style="stop-color:#FFE26A"/>
	</linearGradient>
	<polygon class="st1" points="1260.74,1935.08 1239.12,1935.08 1239.12,1917.82 1231.36,1917.82 1231.36,1959.63 1239.12,1959.63 
		1239.12,1941.71 1260.74,1941.71 1260.74,1959.63 1268.44,1959.63 1268.44,1917.82 1260.74,1917.82 	"/>
	<linearGradient id="SVGID_3_" gradientUnits="userSpaceOnUse" x1="1279.7277" y1="1938.7267" x2="1311.0804" y2="1938.7267">
		<stop  offset="0" style="stop-color:#9C752A"/>
		<stop  offset="1" style="stop-color:#FFE26A"/>
	</linearGradient>
	<polygon class="st2" points="1287.49,1941.59 1307.68,1941.59 1307.68,1935.2 1287.49,1935.2 1287.49,1924.39 1310.24,1924.39 
		1310.24,1917.82 1279.73,1917.82 1279.73,1959.63 1311.08,1959.63 1311.08,1953.06 1287.49,1953.06 	"/>
	<linearGradient id="SVGID_4_" gradientUnits="userSpaceOnUse" x1="1336.2219" y1="1938.7267" x2="1373.3071" y2="1938.7267">
		<stop  offset="0" style="stop-color:#9C752A"/>
		<stop  offset="1" style="stop-color:#FFE26A"/>
	</linearGradient>
	<path class="st3" d="M1367.28,1938.46c-0.48-0.22-0.98-0.41-1.49-0.57c1.6-0.85,2.9-2,3.88-3.49c1.04-1.57,1.55-3.47,1.55-5.7
		c0-3.3-1.31-5.94-3.94-7.91c-2.63-1.97-6.43-2.96-11.41-2.96h-19.65v41.8h20.84c5.38,0,9.43-0.99,12.15-2.99
		c2.73-1.99,4.09-4.78,4.09-8.36c0-2.43-0.54-4.46-1.61-6.09C1370.62,1940.56,1369.15,1939.31,1367.28,1938.46z M1343.99,1923.92
		h10.99c2.67,0,4.74,0.48,6.21,1.43c1.47,0.96,2.21,2.41,2.21,4.36c0,1.91-0.74,3.34-2.21,4.3c-1.47,0.95-3.54,1.43-6.21,1.43
		h-10.99V1923.92z M1363.21,1952.1c-1.55,0.95-3.76,1.43-6.63,1.43h-12.6v-12.06h12.6c2.87,0,5.08,0.49,6.63,1.46
		c1.55,0.98,2.33,2.5,2.33,4.57C1365.54,1949.62,1364.77,1951.15,1363.21,1952.1z"/>
	<linearGradient id="SVGID_5_" gradientUnits="userSpaceOnUse" x1="1381.6674" y1="1938.7267" x2="1413.0204" y2="1938.7267">
		<stop  offset="0" style="stop-color:#9C752A"/>
		<stop  offset="1" style="stop-color:#FFE26A"/>
	</linearGradient>
	<polygon class="st4" points="1389.43,1941.59 1409.62,1941.59 1409.62,1935.2 1389.43,1935.2 1389.43,1924.39 1412.18,1924.39 
		1412.18,1917.82 1381.67,1917.82 1381.67,1959.63 1413.02,1959.63 1413.02,1953.06 1389.43,1953.06 	"/>
	<linearGradient id="SVGID_6_" gradientUnits="userSpaceOnUse" x1="1421.7388" y1="1938.7267" x2="1458.8241" y2="1938.7267">
		<stop  offset="0" style="stop-color:#9C752A"/>
		<stop  offset="1" style="stop-color:#FFE26A"/>
	</linearGradient>
	<polygon class="st5" points="1451.18,1946.18 1428.13,1917.82 1421.74,1917.82 1421.74,1959.63 1429.44,1959.63 1429.44,1931.28 
		1452.43,1959.63 1458.82,1959.63 1458.82,1917.82 1451.18,1917.82 	"/>
	<linearGradient id="SVGID_7_" gradientUnits="userSpaceOnUse" x1="1467.1263" y1="1938.7273" x2="1506.0627" y2="1938.7273">
		<stop  offset="0" style="stop-color:#9C752A"/>
		<stop  offset="1" style="stop-color:#FFE26A"/>
	</linearGradient>
	<path class="st6" d="M1479.16,1928.16c1.33-1.31,2.91-2.33,4.72-3.05c1.81-0.72,3.81-1.07,6-1.07c2.15,0,4.16,0.41,6.03,1.22
		c1.87,0.82,3.58,2.04,5.14,3.67l5.02-4.72c-1.95-2.31-4.34-4.05-7.17-5.23c-2.83-1.17-5.95-1.76-9.38-1.76
		c-3.23,0-6.19,0.53-8.9,1.58c-2.71,1.05-5.08,2.56-7.11,4.51c-2.03,1.95-3.6,4.22-4.72,6.81c-1.12,2.59-1.67,5.46-1.67,8.6
		c0,3.15,0.56,6.01,1.67,8.6c1.11,2.59,2.68,4.86,4.69,6.81c2.01,1.95,4.37,3.45,7.08,4.51c2.71,1.05,5.67,1.58,8.9,1.58
		c3.46,0,6.61-0.6,9.44-1.79c2.83-1.19,5.22-2.95,7.17-5.26l-5.02-4.72c-1.55,1.67-3.26,2.92-5.14,3.73
		c-1.87,0.82-3.88,1.22-6.03,1.22c-2.19,0-4.19-0.36-6-1.08c-1.81-0.72-3.38-1.73-4.72-3.05c-1.33-1.31-2.38-2.87-3.14-4.66
		c-0.76-1.79-1.13-3.76-1.13-5.91c0-2.15,0.38-4.12,1.13-5.91C1476.78,1931.02,1477.83,1929.47,1479.16,1928.16z"/>
	<linearGradient id="SVGID_8_" gradientUnits="userSpaceOnUse" x1="1513.5277" y1="1938.7267" x2="1550.613" y2="1938.7267">
		<stop  offset="0" style="stop-color:#9C752A"/>
		<stop  offset="1" style="stop-color:#FFE26A"/>
	</linearGradient>
	<polygon class="st7" points="1542.91,1935.08 1521.29,1935.08 1521.29,1917.82 1513.53,1917.82 1513.53,1959.63 1521.29,1959.63 
		1521.29,1941.71 1542.91,1941.71 1542.91,1959.63 1550.61,1959.63 1550.61,1917.82 1542.91,1917.82 	"/>
	<linearGradient id="SVGID_9_" gradientUnits="userSpaceOnUse" x1="1561.9" y1="1938.7267" x2="1607.7051" y2="1938.7267">
		<stop  offset="0" style="stop-color:#9C752A"/>
		<stop  offset="1" style="stop-color:#FFE26A"/>
	</linearGradient>
	<polygon class="st8" points="1601.2,1917.82 1584.88,1945.53 1568.29,1917.82 1561.9,1917.82 1561.9,1959.63 1569.3,1959.63 
		1569.3,1932.3 1583.04,1954.91 1586.56,1954.91 1600.24,1931.87 1600.24,1959.63 1607.71,1959.63 1607.59,1917.82 	"/>
	<linearGradient id="SVGID_10_" gradientUnits="userSpaceOnUse" x1="1613.0188" y1="1938.7267" x2="1658.3458" y2="1938.7267">
		<stop  offset="0" style="stop-color:#9C752A"/>
		<stop  offset="1" style="stop-color:#FFE26A"/>
	</linearGradient>
	<path class="st9" d="M1631.83,1917.82l-18.81,41.8h7.94l4.16-9.67h20.91l4.14,9.67h8.18l-18.87-41.8H1631.83z M1627.73,1943.86
		l7.86-18.29l7.83,18.29H1627.73z"/>
	<linearGradient id="SVGID_11_" gradientUnits="userSpaceOnUse" x1="1663.6005" y1="1938.7267" x2="1699.3125" y2="1938.7267">
		<stop  offset="0" style="stop-color:#9C752A"/>
		<stop  offset="1" style="stop-color:#FFE26A"/>
	</linearGradient>
	<path class="st10" d="M1690.32,1945.65c2.65-1.19,4.69-2.89,6.12-5.08c1.43-2.19,2.15-4.82,2.15-7.88c0-3.11-0.72-5.77-2.15-8
		c-1.43-2.23-3.47-3.93-6.12-5.11c-2.65-1.17-5.82-1.76-9.53-1.76h-17.2v41.8h7.76v-12.18h9.43c0.56,0,1.08-0.04,1.62-0.07
		l8.54,12.25h8.36l-9.63-13.73C1689.9,1945.81,1690.12,1945.75,1690.32,1945.65z M1688.17,1938.85c-1.73,1.47-4.31,2.21-7.73,2.21
		h-9.08v-16.66h9.08c3.42,0,6,0.73,7.73,2.18c1.73,1.45,2.6,3.49,2.6,6.12C1690.77,1935.32,1689.91,1937.37,1688.17,1938.85z"/>
	<linearGradient id="SVGID_12_" gradientUnits="userSpaceOnUse" x1="1707.2554" y1="1938.7267" x2="1745.5349" y2="1938.7267">
		<stop  offset="0" style="stop-color:#9C752A"/>
		<stop  offset="1" style="stop-color:#FFE26A"/>
	</linearGradient>
	<polygon class="st11" points="1744.4,1917.82 1735.62,1917.82 1715.02,1939.27 1715.02,1917.82 1707.26,1917.82 1707.26,1959.63 
		1715.02,1959.63 1715.02,1948.86 1721.65,1942.13 1736.4,1959.63 1745.53,1959.63 1726.82,1936.5 	"/>
	<linearGradient id="SVGID_13_" gradientUnits="userSpaceOnUse" x1="1764.2263" y1="1938.7273" x2="1809.2544" y2="1938.7273">
		<stop  offset="0" style="stop-color:#9C752A"/>
		<stop  offset="1" style="stop-color:#FFE26A"/>
	</linearGradient>
	<path class="st12" d="M1802.89,1923.29c-2.01-1.93-4.39-3.42-7.14-4.48c-2.75-1.06-5.73-1.58-8.96-1.58
		c-3.27,0-6.27,0.54-9.02,1.61c-2.75,1.08-5.14,2.58-7.17,4.51c-2.03,1.93-3.6,4.2-4.72,6.81c-1.12,2.61-1.67,5.46-1.67,8.57
		c0,3.07,0.56,5.9,1.67,8.51c1.11,2.61,2.69,4.89,4.72,6.84c2.03,1.95,4.43,3.46,7.2,4.54c2.77,1.07,5.76,1.61,8.99,1.61
		c3.22,0,6.21-0.53,8.96-1.58c2.75-1.06,5.13-2.56,7.14-4.51c2.01-1.95,3.57-4.23,4.69-6.84c1.11-2.61,1.67-5.46,1.67-8.57
		c0-3.11-0.56-5.97-1.67-8.6C1806.47,1927.5,1804.9,1925.22,1802.89,1923.29z M1800.33,1944.64c-0.74,1.79-1.76,3.34-3.08,4.66
		s-2.86,2.33-4.63,3.05c-1.77,0.72-3.71,1.08-5.82,1.08c-2.11,0-4.07-0.36-5.88-1.08c-1.81-0.72-3.37-1.74-4.69-3.08
		c-1.31-1.33-2.35-2.9-3.11-4.69c-0.76-1.79-1.13-3.74-1.13-5.85c0-2.15,0.38-4.11,1.13-5.88c0.76-1.77,1.79-3.32,3.11-4.66
		c1.31-1.33,2.88-2.36,4.69-3.08c1.81-0.72,3.77-1.07,5.88-1.07c2.11,0,4.05,0.36,5.82,1.07c1.77,0.72,3.32,1.73,4.66,3.05
		c1.33,1.31,2.36,2.87,3.08,4.66c0.72,1.79,1.07,3.76,1.07,5.91C1801.43,1940.88,1801.06,1942.85,1800.33,1944.64z"/>
	<linearGradient id="SVGID_14_" gradientUnits="userSpaceOnUse" x1="1817.4962" y1="1938.7267" x2="1848.0131" y2="1938.7267">
		<stop  offset="0" style="stop-color:#9C752A"/>
		<stop  offset="1" style="stop-color:#FFE26A"/>
	</linearGradient>
	<polygon class="st13" points="1817.5,1959.63 1825.26,1959.63 1825.26,1943.56 1845.44,1943.56 1845.44,1937.11 1825.26,1937.11 
		1825.26,1924.39 1848.01,1924.39 1848.01,1917.82 1817.5,1917.82 	"/>
	<linearGradient id="SVGID_15_" gradientUnits="userSpaceOnUse" x1="1871.9591" y1="1938.7267" x2="1906.955" y2="1938.7267">
		<stop  offset="0" style="stop-color:#9C752A"/>
		<stop  offset="1" style="stop-color:#FFE26A"/>
	</linearGradient>
	<path class="st14" d="M1898.68,1919.59c-2.65-1.17-5.82-1.76-9.53-1.76h-17.2v41.8h7.76v-12.06h9.43c3.7,0,6.88-0.61,9.53-1.82
		c2.65-1.21,4.69-2.93,6.12-5.14c1.43-2.21,2.15-4.85,2.15-7.91c0-3.11-0.72-5.77-2.15-8
		C1903.37,1922.46,1901.33,1920.76,1898.68,1919.59z M1896.53,1938.82c-1.73,1.45-4.31,2.18-7.73,2.18h-9.08v-16.6h9.08
		c3.42,0,6,0.73,7.73,2.18c1.73,1.45,2.6,3.49,2.6,6.12C1899.13,1935.32,1898.27,1937.36,1896.53,1938.82z"/>
	<linearGradient id="SVGID_16_" gradientUnits="userSpaceOnUse" x1="1914.3606" y1="1939.0256" x2="1950.9681" y2="1939.0256">
		<stop  offset="0" style="stop-color:#9C752A"/>
		<stop  offset="1" style="stop-color:#FFE26A"/>
	</linearGradient>
	<path class="st15" d="M1943.32,1941.12c0,4.3-0.92,7.43-2.75,9.38c-1.83,1.95-4.44,2.93-7.82,2.93c-3.38,0-6-0.98-7.85-2.93
		c-1.85-1.95-2.78-5.08-2.78-9.38v-23.29h-7.76v23.53c0,6.13,1.62,10.81,4.87,14.03c3.25,3.23,7.71,4.84,13.41,4.84
		c5.73,0,10.22-1.61,13.47-4.84c3.24-3.22,4.87-7.9,4.87-14.03v-23.53h-7.64V1941.12z"/>
	<linearGradient id="SVGID_17_" gradientUnits="userSpaceOnUse" x1="1961.897" y1="1938.7267" x2="1997.609" y2="1938.7267">
		<stop  offset="0" style="stop-color:#9C752A"/>
		<stop  offset="1" style="stop-color:#FFE26A"/>
	</linearGradient>
	<path class="st16" d="M1988.62,1945.65c2.65-1.19,4.69-2.89,6.12-5.08c1.43-2.19,2.15-4.82,2.15-7.88c0-3.11-0.72-5.77-2.15-8
		c-1.43-2.23-3.47-3.93-6.12-5.11c-2.65-1.17-5.82-1.76-9.53-1.76h-17.2v41.8h7.76v-12.18h9.43c0.56,0,1.08-0.04,1.62-0.07
		l8.54,12.25h8.36l-9.63-13.73C1988.19,1945.81,1988.42,1945.75,1988.62,1945.65z M1986.47,1938.85c-1.73,1.47-4.31,2.21-7.73,2.21
		h-9.08v-16.66h9.08c3.42,0,6,0.73,7.73,2.18c1.73,1.45,2.6,3.49,2.6,6.12C1989.07,1935.32,1988.2,1937.37,1986.47,1938.85z"/>
	<linearGradient id="SVGID_18_" gradientUnits="userSpaceOnUse" x1="2005.552" y1="1938.7267" x2="2013.3158" y2="1938.7267">
		<stop  offset="0" style="stop-color:#9C752A"/>
		<stop  offset="1" style="stop-color:#FFE26A"/>
	</linearGradient>
	<rect x="2005.55" y="1917.82" class="st17" width="7.76" height="41.8"/>
	<linearGradient id="SVGID_19_" gradientUnits="userSpaceOnUse" x1="2019.1667" y1="1938.7267" x2="2094.2944" y2="1938.7267">
		<stop  offset="0" style="stop-color:#9C752A"/>
		<stop  offset="1" style="stop-color:#FFE26A"/>
	</linearGradient>
	<polygon class="st18" points="2074.34,1938.17 2061.99,1917.82 2054.64,1917.82 2053.75,1917.82 2019.17,1917.82 2019.17,1924.39 
		2033.02,1924.39 2033.02,1959.63 2040.79,1959.63 2040.79,1924.39 2054.64,1924.39 2054.64,1919.3 2070.17,1944.86 
		2070.17,1959.63 2077.87,1959.63 2077.87,1944.95 2094.29,1917.82 2086.65,1917.82 	"/>
	<linearGradient id="SVGID_20_" gradientUnits="userSpaceOnUse" x1="1811.7073" y1="1673.6498" x2="2701.5483" y2="1673.6498">
		<stop  offset="0" style="stop-color:#9C752A"/>
		<stop  offset="1" style="stop-color:#FFE26A"/>
	</linearGradient>
	<path class="st19" d="M2692.2,1709.44c-9.51-20.68-29.29-33.77-39.03-54.17c-13.05,2.99-25.02,9.67-38.51,11.14
		c-17.16,1.86-34.34,5.18-51.53,0.31c14.76-2.11,29.12-5.61,43.44-9.1c20.6-5.01,40.76-11.17,57.5-25.22
		c6.5-5.46,10.68-12.15,11.77-20.37c1.59-11.93-5.85-16.48-17.28-13.72c-9.72,2.35-10.22,11.78-16.43,16.32
		c-13.3,9.72-28.77,13.83-44.66,16.93c-38.37,7.49-76.73,4.79-114.9-0.79c-31.35-4.59-62.65-10.22-90.35-27.27
		c-7.79-4.79-15.13-10.45-14.12-20.76c0.95-9.7,8.89-14.22,16.83-17.28c15.03-5.79,30.55-9.96,47.18-7.78
		c-4.02,1.11-8.02,2.32-12.07,3.32c-12.02,2.98-23.44,7.34-32.93,15.53c-5.73,4.94-6.14,11.01-1.45,16.85
		c4.69,5.84,9.21,5.18,14.52-0.23c4.83-4.92,11.8-7.5,18.63-6.5c16.69,2.45,30.36-7.45,45.17-11.48
		c15.49-4.22,29.09-5.75,44.29-0.94c14.35,4.55,27.82,14.24,43.58,11.71c14.02-2.25,24.45,3.71,35.38,10.41
		c6.78,4.16,5.62,7.09-0.21,10.51c-11.31,6.63-23.76,10.25-38.75,13.45c41.1,5.48,83.28-15.01,72.26-44.8
		c-19.88,17.05-33.29,15.17-48.16-7.01c-2.32-3.45-4-7.42-5.46-11.33c-2.27-6.05-5.94-8.8-12.7-10.25
		c-46.1-9.88-92.46-10.38-138.82-3.64c-22.98,3.34-45.8,8.83-64.46,24.27c-12.93,10.7-14.29,23.35-4.26,36.68
		c9.42,12.51,22.56,20.19,36.05,27.31c19.21,10.14,40.34,15.18,60.76,22.26c-22.75,0.06-45.28-3.24-65.34-12.96
		c-15.63-7.57-26.87-10.59-36.99,6.45c-2.23,3.76-6.76,6.41-10.67,8.86c-9.72,6.1-7.45,10.66,0.78,16.24
		c31.94,21.69,67.21,35.17,104.65,43.51c26.54,5.91,53.57,8.06,81.55,8.7c-1.18,1.69-1.34,2.22-1.65,2.31
		c-1.59,0.48-3.19,1-4.82,1.23c-68.84,9.55-132.71-6.28-192.78-39.14c-10.57-5.78-12.85-1.91-15.7,6.56
		c-6.53,19.43-6.74,38.89-1.74,58.7c3.18,12.6,10.05,23.71,15.67,38.39c-11.43-10.22-19.16-19.72-25.85-29.97
		c-31.63-48.51-41.98-102.71-41.8-159.53c0.23-72.15,19.54-137.89,68.11-192.81c30.37-34.34,67.73-53.91,115.25-49.92
		c25.8,2.17,40.48,13.82,46.46,38.78c2.36,9.86,4.08,19.94,7.24,29.53c4.21,12.78,10.59,24.29,25.76,26.69
		c15.64,2.48,28.37-2.88,37.76-15.48c6.17-8.28,9.48-17.87,10.1-28.22c1.78-29.85-13.84-53.29-45.94-67.34
		c-43.54-19.06-89.23-21.69-135.6-15.1c-83.67,11.88-145.98,55.75-186.1,129.55c-42.13,77.51-47.47,159.92-22.92,243.53
		c19.55,66.58,61.21,117.18,123.51,149.08c47.46,24.3,98.63,29.03,150.74,23.28c44.24-4.89,82.65-23,113.46-56.02
		c9.71-10.41,18.59-21.47,27.71-34.41c0.42,3.02,0.94,4.22,0.68,5.23c-12.3,47.64-31.02,92.11-64.97,128.78
		c-34.9,37.7-77.42,54.37-128.9,46.23c-42.89-6.78-81.35-24.98-118.87-45.63c-44.4-24.45-86.27-53.27-131.74-75.89
		c-64.58-32.14-132.06-47.13-203.87-33.29c-44.76,8.63-85.81,25.82-117.72,60.08c-6.84,7.35-13.54,15.1-17.23,26.78
		c6.8-3.66,11.67-6.21,16.47-8.87c4.81-2.67,9.56-5.43,14.32-8.18c65.18-37.57,133.38-42.86,204.04-18.4
		c50.31,17.41,95.13,45.52,140.01,73.43c55.32,34.4,110.71,68.77,175.99,81.62c47.7,9.39,94.29,6.61,138.65-14.97
		c51.24-24.93,86.03-65.75,110.53-116.15c4.5-9.27,9.84-16.86,18.8-22.82c20.93-13.91,39.06-31.2,52.35-52.72
		C2702.39,1777.87,2708.43,1744.73,2692.2,1709.44z"/>
	<linearGradient id="SVGID_21_" gradientUnits="userSpaceOnUse" x1="359.8689" y1="1457.5306" x2="1446.4144" y2="1457.5306">
		<stop  offset="0" style="stop-color:#9C752A"/>
		<stop  offset="1" style="stop-color:#FFE26A"/>
	</linearGradient>
	<path class="st20" d="M674.01,1726.27c6.09,40.69,4.18,81.02-5.54,120.91c-6.48,26.57-6.82,26.68,20.76,24.85
		c38.42-2.55,76.79-6.26,115.28-1.01c6.27,0.85,12.7,1.25,19,0.84c4.3-0.28,10.98,3.42,12.2-4.77c1-6.74-1.42-10.62-8.72-12.84
		c-12.07-3.67-19.73-12.73-23.57-24.71c-3.62-11.29-6.08-22.79-6.73-34.74c-2.13-38.92-0.91-77.87-1.21-116.8
		c-0.03-3.32-0.29-7.47,1.46-9.82c10.56-14.13,21.67-27.84,33.37-42.68c2.57,4.85,4.36,8.16,6.08,11.5
		c26.5,51.42,52.64,103.03,79.62,154.2c13.02,24.7,26.75,49.51,51.86,64.4c42.16,25,87.43,21.45,133.03,13.05
		c4.7-0.86,5.9-3.97,6.12-8.22c0.28-5.37-2.52-7.15-7.35-8.31c-39.35-9.43-66.96-34.54-88.85-67.15
		c-47.47-70.72-82.32-148.3-121.57-223.49c-2.8-5.37-1.23-8.38,1.89-12.27c36.01-44.84,72.22-89.54,107.8-134.72
		c31.66-40.19,71.46-64.95,123.27-69.05c6.63-0.53,9.91,0.82,12.63,6.94c8.09,18.19,7.9,36.95,5.33,56.06
		c-0.54,4-3.3,8.6,0.72,11.95c4.06,3.37,2.98,6.01,0.58,9.61c-2.34,3.5-4.94,8.15,0.14,11.02c5.62,3.17,8.53-1.29,10.29-5.91
		c1.66-4.36,3.86-6.46,8.25-3.31c3.03,2.17,8.68,2.51,5.31,9.02c-2.26,4.37-4.46,10.61,1.73,13.09c6.73,2.7,8.53-3.79,9.81-8.6
		c1.73-6.47,6.17-4.29,10.12-3.83c5,0.57,4.37,3.47,3.41,7.31c-1.48,5.89-0.25,12.14,6.72,12.44c6.13,0.26,6.16-6.11,5.78-10.66
		c-0.45-5.37,1.4-7.37,6.74-8.02c5.38-0.66,7.72,0.47,8.17,6.24c0.39,4.91,3.09,9.64,8.93,8.13c5.22-1.35,5.15-6.58,3.52-10.62
		c-2.12-5.26-1.63-8.25,3.94-10.97c6.19-3.02,6.78,1.18,9.05,4.81c2.33,3.74,5.55,9.07,10.83,4.62c4.05-3.42,3.4-8.8-0.63-12.26
		c-6.73-5.8-1.8-8.29,1.99-12.63c5.97-6.83,8.2-0.06,10.57,2.49c30.02,32.37,65.19,45.92,108.46,30.21c5.8-2.11,7.62-0.33,8,5.28
		c0.62,9.29,1.36,18.58,2.56,27.81c0.44,3.35-2.54,10.05,5.08,8.64c5.16-0.96,12.46-0.64,11.15-10.03
		c-1.14-8.16-1.22-16.47-1.76-24.71c6.17,7.43,9.65,15.08,11.49,23.4c0.83,3.75,1.71,7.93,6.38,8.45c9.96,1.12,18.85,5.83,28.5,8.97
		c1.23-8.2-0.78-15.21-1.85-22.24c-13.38-87.93-78.89-154.07-166.38-168.56c-42.01-6.96-82.55,1.87-122.98,11
		c-62.83,14.19-125.6,22.25-189.55,6.5c-13.79-3.4-23.61-6.79-20.96-23.66c0.61-3.88-1.15-8.31-2.47-12.27
		c-13.23-39.49-60.75-60.69-101.99-46.06c-20.51,7.28-37.37,19.89-51.85,35.39c-38.65,41.37-100.19,26.65-137.13-0.66
		c29.37-13.26,52.3-33.09,67.07-61.5c15.07-28.99,18.31-59.12,10.24-91c-10.11-39.98-51.11-80.93-89.07-86.17
		c3.89,8.89,10.53,14.76,15.89,21.45c19.92,24.87,32.83,52.06,29.49,85.04c-4.39,43.27-40.99,75.98-83.51,74.48
		c-4.62-0.16-10-0.92-13.8,1.01c-34.03,17.33-67.17-5.88-100.81-1.79c-1.1,0.13-2.38-0.79-3.5-1.37
		c-30.34-15.71-48.84-39.98-51.98-74.42c-3.25-35.7,14.38-63.33,36.24-89.05c4.13-4.86,9-9.27,11.49-15.88
		c-2.1-0.25-3.03-0.65-3.72-0.4c-49.46,17.67-81.88,51.3-89.18,103.84c-6.73,48.43,11.51,88.55,49.6,119.68
		c5.07,4.15,16.25,4.45,14.36,12.94c-1.58,7.1-10.87,9.94-17.59,13.53c-1.11,0.6-2.33,1.01-3.5,1.5
		c-39.9,16.48-57.92,49.53-67.88,88.95c-2.75,10.87,1.39,11.3,10.09,8.87c15.15-4.24,30.5-7.8,47.11-11.99
		c-3.61,7.62-8.74,11.27-13.49,15.4c-13.94,12.14-18.61,46.54-8.69,61.97c18.7,29.06,56.77,36.83,85.08,16.96
		c5.52-3.87,10.55-4.79,16.52-2.31c28.03,11.65,48.57,29.73,55.65,60.94c6.2,27.33,6.21,55.43,11.73,82.79
		c3.79,18.77,12.32,34,31.21,41.58c10.88,4.37,19.2,11.66,25.65,21.71c10.64,16.59,23.57,30.97,43.12,37.52
		C670.55,1716.07,673.1,1720.15,674.01,1726.27z M1262.3,1325.37c56.26,3.32,142.88,52.93,158.32,135.84
		c-16.29-32.43-35.37-58.66-65.37-75.15c4.2,13,12.45,23.66,17.57,36c4.35,10.49,0.91,14.43-9,16.96
		c-37.24,9.51-73.46-7.05-96.08-44.56c-10.38-17.22-16.55-35.77-18.65-55.92C1247.92,1327.41,1251.76,1324.75,1262.3,1325.37z
		 M1150.66,1339.92c4.85-1.22,7.9-0.5,9.68,4.83c4.6,13.74,9.02,28.01,6.8,42.18c-2.48,15.88,5.58,21.05,18,24.75
		c9.58,2.86,19.08,3.16,28.52,0.02c7.33-2.43,13.86-6.57,19.03-12.23c6.88-7.53-2.09-12.88-3.79-19.02
		c-4.07-14.7-7.83-29.35-8.28-44.67c-0.12-4.13-1.16-8.58,5.5-9.1c6.12-0.48,7.11,3,7.34,7.66c1.05,20.95,6.72,40.75,15.28,59.76
		c2,4.43,1.67,7.58-1.43,11.42c-20.74,25.65-63.95,29.48-89.2,7.81c-7.9-6.78-0.93-15.12-2.94-21.93
		c0.95-15.16-1.89-29.12-7.07-42.69C1146.77,1345.25,1144.46,1341.49,1150.66,1339.92z M796.98,1344.22
		c1.27-23.01,7.55-45,23.12-63.19c16.22-18.95,43.38-26.09,69.57-16.65c20.98,7.56,34.67,22.18,36.83,45.55
		c1.52,16.53,7.8,26,22.38,34.48c11.64,6.77,13.68,17.27,11.19,29.55c-5.62,27.76-20.91,50.77-37.68,72.43
		c-40.1,51.79-81.3,102.72-122.09,153.97c-0.7,0.88-1.78,1.44-4.82,3.85c0-24.81-0.16-47.21,0.03-69.61
		C796.05,1471.15,793.47,1407.64,796.98,1344.22z M440,1303.08c-5.34,8-14.9,7.39-22.57,10.64
		C423.36,1306.94,430.94,1303.49,440,1303.08z M417.77,1363.55c-6.26,2.46-12.69,4.54-19.16,6.39c-6.4,1.82-12.94,3.13-22,5.27
		c12.86-27.63,31.44-45.02,58.34-53.63c6.23-1.99,7.37-0.35,7.37,5.36C442.33,1341.76,431.73,1358.05,417.77,1363.55z
		 M417.32,1459.67c14.46-1.66,27.58,2.33,40.13,8.9C442.77,1472.01,429,1470.89,417.32,1459.67z M642.28,1673.24
		c-9.89-16.46-22.35-29.21-40.37-36.68c-9.99-4.14-15.19-12.97-17.94-23.29c-1.11-4.18-1.2-7.48,3.9-8.87
		c5.87-1.59,4.45,2.92,5.28,5.87c1.62,5.75,4.65,11.02,11.51,8.08c6.7-2.87,5.99-9.34,2.32-13.92c-5.7-7.11,0.05-9.01,4.01-12.64
		c5.86-5.37,7.32-0.6,9.94,3.32c2.95,4.42,7.7,6.25,12.01,2.74c4.69-3.82,2.83-9.43-1.11-12.07c-12.11-8.13-0.48-12.61,2.77-17.37
		c2.95-4.31,4.68,1.12,6,3.01c2.79,3.97,6.24,5.47,10.89,4.5c3.12-0.65,3.8-3.32,4.03-5.75c0.48-5.08-2.81-7.94-7.17-9.05
		c-6.64-1.69-6.86-4.74-3.26-9.79c2.18-3.06,3.61-6.64,5.37-9.96c4.98-0.5,4.1,4.68,6.73,6.39c2.94,1.9,5.59,3.96,9.24,2.08
		c1.97-1.02,3.34-2.6,3.55-4.9c0.36-3.93-1.61-7.34-5.12-7.69c-13.54-1.33-8.93-8.17-5.87-15.82c8.34-20.86,13.9-42.5,16.26-64.91
		c0.58-5.5,2.43-12.48-4.83-13.68c-7.95-1.32-5.2,7.07-6.09,10.84c-7.89,33.54-18.12,66.05-38.09,94.68
		c-9.53,13.66-20.46,26.08-35.5,33.76c-3.01,1.54-8.74,7.71-11.28,0.42c-1.79-5.13-4.85-12.57,2.68-16.98
		c50.12-29.34,61.04-79.81,70.61-130.99c0.27-1.46-0.53-3.13-1.05-5.77c-4.22,2.63-4.59,6.09-5.55,9.56
		c-7.76,28.26-17.9,55.54-34.58,79.95c-7.47,10.94-16.54,20.3-27.91,27.26c-4.86,2.97-9.19,3.44-9.84-3.77
		c-3.69-41.14-24.98-69.02-65.6-84.31c10.78-4.14,19.65-5.33,28.77-5.99c32.25-2.33,52.47-18.01,59.8-45.74
		c1.09-4.13,1.94-8.11,0.6-12.2c-5.8-1.01-4.96,4.1-6.19,6.55c-12.29,24.47-31.47,37.97-59.29,38.38
		c-11.79,0.17-23.42,1.72-34.62,5.86c-2.8-5.99,1.92-12.05-2.13-18.38c-7.03,5.49-8.43,13.7-11.74,20.62
		c-4.14,8.65-11.07,11.71-19.79,9.55c-10-2.48-19.27-6.88-23.41-17.4c-1.73-4.4,1.94-4.52,4.97-4.98c10.41-1.57,15.16-8.7,13.07-18
		c-2.1-9.36-10.69-9.54-18.7-7.81c-9.23,2-18.29,3.09-28.57-3.64c15.58-12.82,26.17-28.73,35.29-45.76
		c7.55-14.1,12.33-28.6,9.91-44.94c-1.74-11.77,0.68-22.76,8.48-32.15c7.09-8.54,11.97-18.21,16.26-28.45
		c6.23-14.88,17.47-21.41,32.35-16.99c25.62,7.6,50.71,7.8,76.08-0.09c8.51-2.65,13.4-1.8,11.52,9.59
		c-2.13,12.87,6.06,22.21,15.2,31.74c-4.81,2.67-9.16,3.04-13.62,3.44c-4.44,0.4-8.94-2.56-16.74,1.48
		c43.25,11.95,69.36,39.87,88.14,75.84c-13.77-14.81-30.99-24.57-48.44-34c-7.25-3.91-12.55-9.95-17.88-15.98
		c-1.64-1.85-2.97-4.72-5.94-3.83c-3.03,0.91-2.79,3.95-2.57,6.45c1.75,19.79,1.99,39.82,7.11,59.13
		c4.44,16.74,15.23,29,29.89,37.88c16.99,10.3,34.19,20.26,51.05,30.77c7.09,4.42,10.49,4.01,10.99-5.16
		c2.43-44.83-2.48-87.24-38.16-119.93c-1.53-1.4-2.73-3.15-5.01-5.81c36.17,6.72,51.61,29.7,54.67,62.99
		c0.97,10.52,2.13,21.09,2.13,31.64c0.05,117.69-0.09,235.38-0.21,353.07c-0.02,21.61-1.79,43.08-6.32,64.24
		c-1.92,8.96-5.29,17.36-14.03,26.02c7.96-73.39,6.55-142.91-27.59-207.88c-0.56,19.19,7.49,37.47,6.37,58.04
		C657.52,1690.84,648.35,1683.33,642.28,1673.24z M681.01,1417.22c-50.91-22.02-66.5-40.46-66.39-79.6
		C652.46,1349.42,675.45,1374.85,681.01,1417.22z"/>
	<linearGradient id="SVGID_22_" gradientUnits="userSpaceOnUse" x1="1485.0824" y1="1621.1296" x2="1817.807" y2="1621.1296">
		<stop  offset="0" style="stop-color:#9C752A"/>
		<stop  offset="1" style="stop-color:#FFE26A"/>
	</linearGradient>
	<path class="st21" d="M1817.17,1829.82c-2.14-5.75-5.98-4.22-10.24-3.39c-14.19,2.75-26.72-1.88-38.38-9.49
		c-12.54-8.18-22.75-18.89-31.92-30.59c-29.62-37.76-51.34-80.27-73.74-122.4c-4.63-8.71-3.9-12.71,5.08-18.3
		c25.14-15.66,43.98-36.83,49.8-67.16c7.97-41.5-18.77-69.93-60.67-64.88c-15.68,1.89-28.87,8.93-41.24,18.11
		c-13.33,9.89-22.81,23.29-34.55,39.66c0-10.71,0.01-17.46,0-24.22c-0.04-40.2,0.22-80.4-0.21-120.59
		c-0.3-27.61-12.24-38.3-39.56-37.03c-18.71,0.87-35.47,7.22-50.66,17.92c-3.24,2.28-7.74,3.94-4.88,9.84
		c2.56,5.28,5.49,2.87,9.25,1.97c11.72-2.78,16.63,0.63,17.8,12.71c0.97,10.08,1.25,20.26,1.26,30.4
		c0.11,96.05,0.03,192.11,0.19,288.16c0.04,21.54,9.42,29.5,33.4,29.43c24.03-0.06,33.24-8.17,33.29-29.62
		c0.09-39.78-0.96-79.59,0.4-119.32c1.25-36.36,20.2-64,49.67-83.99c14.69-9.96,27.99-1.75,28.16,16.2c0.1,10.8-3.71,20.73-9.06,30
		c-12.96,22.45-30.82,40.04-53.16,53.11c-4.17,2.44-9.07,3.26-5.88,10.86c22.77,54.31,48.51,107,84.75,153.77
		c32.63,42.11,88.36,53.7,134.34,28.88C1814.09,1837.88,1819.71,1836.62,1817.17,1829.82z"/>
	<linearGradient id="SVGID_23_" gradientUnits="userSpaceOnUse" x1="1236.6505" y1="1668.4592" x2="1481.1971" y2="1668.4592">
		<stop  offset="0" style="stop-color:#9C752A"/>
		<stop  offset="1" style="stop-color:#FFE26A"/>
	</linearGradient>
	<path class="st22" d="M1451.87,1770.37c35.59-69.1,37.86-141.78,11.82-213.84c-16.18-44.78-58.17-54.59-98.4-28.27
		c-11.47,7.5-19.94,17.95-30.42,30.33c-1.17-7.33-1.69-11.48-2.51-15.57c-3.01-15.12-15.13-26.55-30.51-28.01
		c-23.69-2.25-43.61,7.56-62.54,20.33c-4.02,2.71-2.73,5.36-1.12,8.53c1.57,3.09,2.96,3.71,6.81,2.44
		c13.93-4.56,19.13-1.27,21.5,13.29c1.08,6.64,1.25,13.48,1.25,20.22c0.06,56.73-0.01,113.45-0.06,170.18
		c-0.01,8.14-0.05,16.34,7.15,22.03c14.18,11.21,30.11,9.77,45.8,4.94c14.72-4.53,15.36-17.25,15.32-30.08
		c-0.15-47.84-0.1-95.67-0.13-143.51c-0.01-16.9,7.31-30.23,20.61-40.1c14.31-10.63,31.38-6.86,39.77,8.79
		c3.15,5.88,5.74,12.42,6.86,18.96c10.3,59.92,8.92,119.61-5.5,178.73c-3.68,15.09-11.08,28.9-26.69,34.99
		c-6.98,2.72-7.11,6.29-6.18,12.37c1.33,8.68,7.35,5.47,11.61,4.91C1410.19,1817.6,1436.56,1800.11,1451.87,1770.37z"/>
	<linearGradient id="SVGID_24_" gradientUnits="userSpaceOnUse" x1="1014.8506" y1="1648.0868" x2="1244.824" y2="1648.0868">
		<stop  offset="0" style="stop-color:#9C752A"/>
		<stop  offset="1" style="stop-color:#FFE26A"/>
	</linearGradient>
	<path class="st23" d="M1243.21,1751.12c3.2-4.21,1.03-6.75-1.23-9.89c-3.53-4.9-5.36-0.54-7.94,1.13c-11,7.12-18.5,3.9-20.62-9.17
		c-0.87-5.38-0.64-10.97-0.65-16.47c-0.08-38.93,0.21-77.87-0.22-116.8c-0.31-27.88-8.19-52.45-33.1-68.77
		c-35.42-23.2-95.73-21.58-129.74,3.69c-18.31,13.6-25.75,38.13-17.46,57.61c4.81,11.29,16.67,18.87,29.3,18.33
		c11.59-0.5,20.75-5.67,24.14-17.01c3.7-12.38-2.37-20.89-13.25-26.98c-8.1-4.53-7.39-11.12-1.14-16.53
		c13.93-12.04,30.23-14.44,47.52-9.15c14.92,4.56,23.13,15.7,24.86,30.65c2.04,17.59-1.18,33.86-17.67,44.45
		c-11.93,7.67-25.84,10.26-38.89,15.05c-27.39,10.06-53.78,21.41-66,50.98c-17.68,42.76,2.01,99.92,58.98,99.18
		c27.52-0.36,49.39-12.21,65.52-34.11c2.86,1.26,3,3.5,3.82,5.42c9.5,22.2,25.66,31.29,49.52,27.65
		C1218.17,1777.43,1231.83,1766.08,1243.21,1751.12z M1141.71,1717.94c-3.4,10.01-9.2,17.93-18.01,23.6
		c-12.46,8.02-26.18,5.18-34.01-7.34c-15.25-24.4-11.91-78.49,30.12-91.96c16.12-5.17,24.16-0.04,24.22,16.54
		c0.02,7.17,0,14.34,0,24.02C1143.06,1692.82,1145.92,1705.53,1141.71,1717.94z"/>
	<linearGradient id="SVGID_25_" gradientUnits="userSpaceOnUse" x1="1930.9344" y1="1647.7026" x2="2143.0818" y2="1647.7026">
		<stop  offset="0" style="stop-color:#9C752A"/>
		<stop  offset="1" style="stop-color:#FFE26A"/>
	</linearGradient>
	<path class="st24" d="M2023.37,1778.84c45.66,8.9,84.29-5.44,113.23-42.69c3.26-4.2,10.81-8.84,3.19-15.99
		c-7.93-7.43-10.24,1.95-13.71,4.98c-29.66,25.87-67.64,25.42-94.56-1.64c-10.67-10.73-16.69-24.11-21.92-38.06
		c-3.08-8.22-0.81-11.66,7.52-14.56c30.69-10.67,61.1-22.2,88.63-39.94c49.9-32.16,29.55-85.64-2.91-103.73
		c-31.73-17.68-64.15-16.66-96.19-2.5c-54.38,24.03-72.7,70.44-75.71,125.64c0.22,17.21,2.04,33.89,7.48,50.15
		C1952.4,1742.25,1979.87,1770.35,2023.37,1778.84z M2001.76,1637.01c0.29-3.78,0.05-7.61,0.05-11.41
		c0.03-22.26,3.59-43.8,14.71-63.41c6.51-11.47,14.97-20.78,29.99-19.39c14.64,1.35,20.24,12.23,24.72,24
		c10.33,27.13,0.1,53.41-25.96,65.7c-10.27,4.84-21.41,7.88-31.6,12.87C2003.45,1650.37,2001.03,1646.66,2001.76,1637.01z"/>
	<linearGradient id="SVGID_26_" gradientUnits="userSpaceOnUse" x1="1738.6486" y1="1647.5002" x2="1929.2654" y2="1647.5002">
		<stop  offset="0" style="stop-color:#9C752A"/>
		<stop  offset="1" style="stop-color:#FFE26A"/>
	</linearGradient>
	<path class="st25" d="M1747.55,1545.36c11.8-3.58,18.17,0.14,20.44,13.09c1.3,7.43,1.03,15.18,1.03,22.78
		c0.04,56.29,0.03,112.57-0.14,168.86c-0.03,9.83,1.58,18.84,10.63,24.26c14.13,8.46,29.41,7.81,43.91,2.1
		c13.77-5.43,14.13-18.63,14.14-31.22c0.06-46.55,0.11-93.11,0.22-139.66c0.01-4.56-0.78-9.24,2.83-13.22
		c10-11,20.42-21.42,34.56-27.13c15.6-6.3,30.78-2.4,38.06,9.82c1.59,2.67,1.52,7.7,5.85,6.7c4.11-0.95,7.06-4.65,7.82-9.16
		c2.04-12.14,3.57-24.33,1.02-36.59c-2.61-12.56-11.79-20.12-24.77-21.49c-16.37-1.73-28.34,6.5-39.47,16.72
		c-10.3,9.46-17.52,21.53-28.48,34.98c-0.87-8.56-1.37-14.41-2.08-20.24c-1.96-16.1-13.39-28.83-29.21-30.71
		c-23.64-2.82-43.79,6.49-62.46,19.94c-3.45,2.48-3.33,5.01-1.8,8.71C1741.82,1549.13,1744.56,1546.26,1747.55,1545.36z"/>
	<linearGradient id="SVGID_27_" gradientUnits="userSpaceOnUse" x1="2586.9478" y1="1503.0641" x2="2688.5457" y2="1503.0641">
		<stop  offset="0" style="stop-color:#9C752A"/>
		<stop  offset="1" style="stop-color:#FFE26A"/>
	</linearGradient>
	<path class="st26" d="M2612.78,1579.02c-11.58-32.8,9.22-53.1,27.38-77.82c0.18,16.09,4.7,28.02,10.95,39.53
		c7.31,13.45,2.74,26.15-3.66,38.54c-1.38,2.67-5.61,4.18-3.8,8.39c46.03-17.06,54.37-62.15,35.41-103.91
		c-5.39,6.25-5.74,16.21-14.78,19.68c1.48-40.15-7.21-64.4-30.84-84.95c3.5,24.14-7.39,42.81-20.48,60.69
		c-7.73,10.55-16.23,20.58-21.37,32.83C2580.83,1537.66,2589.13,1565.76,2612.78,1579.02z"/>
	<linearGradient id="SVGID_28_" gradientUnits="userSpaceOnUse" x1="520.1181" y1="1320.344" x2="571.196" y2="1320.344">
		<stop  offset="0" style="stop-color:#9C752A"/>
		<stop  offset="1" style="stop-color:#FFE26A"/>
	</linearGradient>
	<path class="st27" d="M520.12,1332.62c20.6,1.29,39.21-2.01,51.08-20.24C536.07,1303.51,529.35,1306.23,520.12,1332.62z"/>
	<linearGradient id="SVGID_29_" gradientUnits="userSpaceOnUse" x1="492.7719" y1="1272.5824" x2="518.1374" y2="1272.5824">
		<stop  offset="0" style="stop-color:#9C752A"/>
		<stop  offset="1" style="stop-color:#FFE26A"/>
	</linearGradient>
	<path class="st28" d="M495.96,1272.46c-3.25,6.14-5.79,14.38,1.73,17.88c7.37,3.43,12.26-3.43,14.58-10.13
		c2.85-8.27,5.45-16.69,5.88-26.3C508.51,1258.14,500.65,1263.6,495.96,1272.46z"/>
	<linearGradient id="SVGID_30_" gradientUnits="userSpaceOnUse" x1="665.251" y1="1516.5862" x2="681.7817" y2="1516.5862">
		<stop  offset="0" style="stop-color:#9C752A"/>
		<stop  offset="1" style="stop-color:#FFE26A"/>
	</linearGradient>
	<path class="st29" d="M681.78,1518.1c-0.21-5.74-4.67-7.69-9.53-8.05c-3.16-0.23-7.64,0.02-6.92,4.7c0.72,4.69,3.55,8.6,11.09,8.44
		C678.1,1522.98,681.95,1522.66,681.78,1518.1z"/>
	<linearGradient id="SVGID_31_" gradientUnits="userSpaceOnUse" x1="674.889" y1="1491.1901" x2="688.6154" y2="1491.1901">
		<stop  offset="0" style="stop-color:#9C752A"/>
		<stop  offset="1" style="stop-color:#FFE26A"/>
	</linearGradient>
	<path class="st30" d="M682.76,1496.9c3.43,0.51,5.3-1.78,5.86-4.96c-0.23-4.15-2.49-6.38-6.33-6.51c-3.39-0.11-7.47,0.38-7.4,4.76
		C674.96,1494.56,678.95,1496.34,682.76,1496.9z"/>
	<linearGradient id="SVGID_32_" gradientUnits="userSpaceOnUse" x1="661.6946" y1="1938.7273" x2="1169.7089" y2="1938.7273">
		<stop  offset="0" style="stop-color:#9C752A"/>
		<stop  offset="1" style="stop-color:#FFE26A"/>
	</linearGradient>
	<rect x="661.69" y="1933.65" class="st31" width="508.01" height="10.16"/>
</g>
<g>
	<linearGradient id="SVGID_33_" gradientUnits="userSpaceOnUse" x1="2711.1265" y1="1307.8771" x2="2768.5723" y2="1307.8771">
		<stop  offset="0" style="stop-color:#9C752A"/>
		<stop  offset="1" style="stop-color:#FFE26A"/>
	</linearGradient>
	<path class="st32" d="M2757.55,1273.69c-1.12-0.03-1.54,0.37-1.88,1.38c-5.05,14.59-10.49,29.04-15.27,43.72
		c-0.1,0.3-0.01,0.77-0.56,0.86c-0.11-0.31-0.23-0.62-0.33-0.93c-4.97-14.75-10.44-29.32-15.61-44c-0.22-0.63-0.45-1.04-1.26-1.03
		c-3.49,0.05-6.99,0.04-10.48,0.01c-0.83-0.01-1.02,0.29-1.02,1.07c0.02,22.07,0.02,44.14-0.01,66.2c0,0.81,0.25,1.07,1.04,1.06
		c2.59-0.04,5.18-0.09,7.77,0.02c1.31,0.06,1.55-0.39,1.53-1.59c-0.17-15.2,0.28-30.4-0.34-45.65c0.4,0.23,0.38,0.59,0.49,0.89
		c4.69,12.89,9.38,25.77,14.04,38.67c0.28,0.78,0.64,1.09,1.49,1.06c1.76-0.07,3.53-0.06,5.3,0c0.78,0.02,1.14-0.24,1.41-0.99
		c4.64-12.9,9.31-25.8,13.99-38.69c0.12-0.32,0.09-0.76,0.58-0.96c-0.05,0.85-0.12,1.65-0.14,2.46
		c-0.49,14.58-0.11,29.17-0.25,43.76c-0.01,0.86,0.31,1.03,1.07,1.03c2.79-0.03,5.59-0.04,8.38,0.01c0.88,0.02,1.09-0.27,1.09-1.12
		c-0.02-22.07-0.02-44.14,0-66.2c0-0.84-0.26-1.03-1.04-1.02C2764.21,1273.74,2760.88,1273.77,2757.55,1273.69z"/>
	<linearGradient id="SVGID_34_" gradientUnits="userSpaceOnUse" x1="2651.3955" y1="1307.8754" x2="2702.1956" y2="1307.8754">
		<stop  offset="0" style="stop-color:#9C752A"/>
		<stop  offset="1" style="stop-color:#FFE26A"/>
	</linearGradient>
	<path class="st33" d="M2700.89,1273.7c-6.61,0.04-13.23,0.02-19.84,0.02c-9.49,0-18.98,0.01-28.47-0.02c-0.9,0-1.2,0.2-1.18,1.15
		c0.07,2.5,0.07,5.01,0,7.52c-0.03,0.96,0.3,1.15,1.19,1.15c5.46-0.04,10.93-0.02,16.39-0.02c2.25,0,2.25,0,2.25,2.28
		c0,18.32,0.01,36.65-0.02,54.97c0,1.02,0.26,1.33,1.3,1.31c2.79-0.07,5.59-0.08,8.38,0c1.11,0.03,1.45-0.25,1.44-1.41
		c-0.05-9.28-0.03-18.57-0.03-27.85c0-9.24,0.02-18.49-0.02-27.73c-0.01-1.19,0.21-1.61,1.53-1.59c5.75,0.08,11.5,0.02,17.25,0.05
		c0.85,0,1.14-0.22,1.13-1.1c-0.05-2.46-0.06-4.93,0-7.39C2702.22,1274,2701.92,1273.69,2700.89,1273.7z"/>
</g>
</svg>
